<mxfile host="65bd71144e">
    <diagram name="Page-1" id="c4acf3e9-155e-7222-9cf6-157b1a14988f">
        <mxGraphModel dx="2827" dy="3767" grid="0" gridSize="10" guides="1" tooltips="1" connect="1" arrows="1" fold="1" page="1" pageScale="1" pageWidth="850" pageHeight="1100" background="#FFFFFF" math="0" shadow="0">
            <root>
                <mxCell id="0"/>
                <mxCell id="1" parent="0"/>
                <mxCell id="200" value="" style="group" vertex="1" connectable="0" parent="1">
                    <mxGeometry x="3394" y="-76" width="172" height="85" as="geometry"/>
                </mxCell>
                <mxCell id="201" value="Account" style="swimlane;fontStyle=1;childLayout=stackLayout;horizontal=1;startSize=26;fillColor=none;horizontalStack=0;resizeParent=1;resizeParentMax=0;resizeLast=0;collapsible=1;marginBottom=0;" vertex="1" parent="200">
                    <mxGeometry y="7" width="165" height="78" as="geometry"/>
                </mxCell>
                <mxCell id="202" value="+ Service: MessagingService" style="text;strokeColor=none;fillColor=none;align=left;verticalAlign=top;spacingLeft=4;spacingRight=4;overflow=hidden;rotatable=0;points=[[0,0.5],[1,0.5]];portConstraint=eastwest;" vertex="1" parent="201">
                    <mxGeometry y="26" width="165" height="26" as="geometry"/>
                </mxCell>
                <mxCell id="203" value="+ Id: string" style="text;strokeColor=none;fillColor=none;align=left;verticalAlign=top;spacingLeft=4;spacingRight=4;overflow=hidden;rotatable=0;points=[[0,0.5],[1,0.5]];portConstraint=eastwest;" vertex="1" parent="201">
                    <mxGeometry y="52" width="165" height="26" as="geometry"/>
                </mxCell>
                <mxCell id="204" value="" style="ellipse;whiteSpace=wrap;html=1;aspect=fixed;fillColor=#FF6666;direction=south;" vertex="1" parent="200">
                    <mxGeometry x="158" width="14" height="14" as="geometry"/>
                </mxCell>
                <mxCell id="191" value="" style="rounded=0;whiteSpace=wrap;html=1;shadow=0;glass=0;sketch=0;gradientColor=none;fillColor=none;" vertex="1" parent="1">
                    <mxGeometry x="2708" y="64" width="202" height="768" as="geometry"/>
                </mxCell>
                <mxCell id="zFhJoIv4NXYZAILvsHAa-19" value="&lt;p style=&quot;margin: 0px ; margin-top: 4px ; text-align: center&quot;&gt;&lt;i&gt;&amp;lt;&amp;lt;Enumeration&amp;gt;&amp;gt;&lt;/i&gt;&lt;br&gt;&lt;b&gt;MessagingService&lt;/b&gt;&lt;/p&gt;&lt;hr size=&quot;1&quot;&gt;&lt;p style=&quot;margin: 0px ; margin-left: 4px&quot;&gt;WhatsApp&lt;/p&gt;&lt;p style=&quot;margin: 0px ; margin-left: 4px&quot;&gt;Telegram&lt;/p&gt;&lt;p style=&quot;margin: 0px ; margin-left: 4px&quot;&gt;Skype&lt;/p&gt;&amp;nbsp;Console&lt;p style=&quot;margin: 0px ; margin-left: 4px&quot;&gt;Other&lt;br&gt;&lt;/p&gt;" style="verticalAlign=top;align=left;overflow=fill;fontSize=12;fontFamily=Helvetica;html=1;rounded=0;shadow=0;comic=0;labelBackgroundColor=none;strokeWidth=1" parent="1" vertex="1">
                    <mxGeometry x="1620" y="-20" width="130" height="119" as="geometry"/>
                </mxCell>
                <mxCell id="zFhJoIv4NXYZAILvsHAa-27" value="" style="group" parent="1" vertex="1" connectable="0">
                    <mxGeometry x="1060" y="20" width="335" height="420" as="geometry"/>
                </mxCell>
                <mxCell id="zFhJoIv4NXYZAILvsHAa-1" value="&lt;b&gt;MessageAPIWhatsApp&lt;/b&gt;" style="swimlane;html=1;fontStyle=0;childLayout=stackLayout;horizontal=1;startSize=26;fillColor=none;horizontalStack=0;resizeParent=1;resizeLast=0;collapsible=1;marginBottom=0;swimlaneFillColor=#ffffff;rounded=0;shadow=0;comic=0;labelBackgroundColor=none;strokeWidth=1;fontFamily=Verdana;fontSize=10;align=center;" parent="zFhJoIv4NXYZAILvsHAa-27" vertex="1">
                    <mxGeometry x="175" y="132" width="160" height="60" as="geometry"/>
                </mxCell>
                <mxCell id="zFhJoIv4NXYZAILvsHAa-20" value="&lt;b&gt;MessageAPITelegram&lt;/b&gt;" style="swimlane;html=1;fontStyle=0;childLayout=stackLayout;horizontal=1;startSize=26;fillColor=none;horizontalStack=0;resizeParent=1;resizeLast=0;collapsible=1;marginBottom=0;swimlaneFillColor=#ffffff;rounded=0;shadow=0;comic=0;labelBackgroundColor=none;strokeWidth=1;fontFamily=Verdana;fontSize=10;align=center;" parent="zFhJoIv4NXYZAILvsHAa-27" vertex="1">
                    <mxGeometry x="175" y="207" width="160" height="60" as="geometry"/>
                </mxCell>
                <mxCell id="zFhJoIv4NXYZAILvsHAa-21" value="&lt;b&gt;MessageAPISkype&lt;/b&gt;" style="swimlane;html=1;fontStyle=0;childLayout=stackLayout;horizontal=1;startSize=26;fillColor=none;horizontalStack=0;resizeParent=1;resizeLast=0;collapsible=1;marginBottom=0;swimlaneFillColor=#ffffff;rounded=0;shadow=0;comic=0;labelBackgroundColor=none;strokeWidth=1;fontFamily=Verdana;fontSize=10;align=center;" parent="zFhJoIv4NXYZAILvsHAa-27" vertex="1">
                    <mxGeometry x="175" y="280" width="160" height="60" as="geometry"/>
                </mxCell>
                <mxCell id="zFhJoIv4NXYZAILvsHAa-22" value="&lt;b&gt;MessageAPIOther&lt;/b&gt;" style="swimlane;html=1;fontStyle=0;childLayout=stackLayout;horizontal=1;startSize=26;fillColor=none;horizontalStack=0;resizeParent=1;resizeLast=0;collapsible=1;marginBottom=0;swimlaneFillColor=#ffffff;rounded=0;shadow=0;comic=0;labelBackgroundColor=none;strokeWidth=1;fontFamily=Verdana;fontSize=10;align=center;" parent="zFhJoIv4NXYZAILvsHAa-27" vertex="1">
                    <mxGeometry x="175" y="360" width="160" height="60" as="geometry"/>
                </mxCell>
                <mxCell id="zFhJoIv4NXYZAILvsHAa-23" value="" style="endArrow=block;dashed=1;endFill=0;endSize=12;html=1;entryX=0.25;entryY=1;entryDx=0;entryDy=0;" parent="zFhJoIv4NXYZAILvsHAa-27" target="zFhJoIv4NXYZAILvsHAa-18" edge="1">
                    <mxGeometry width="160" relative="1" as="geometry">
                        <mxPoint x="170" y="160" as="sourcePoint"/>
                        <mxPoint x="115" y="110" as="targetPoint"/>
                        <Array as="points">
                            <mxPoint x="84" y="160"/>
                        </Array>
                    </mxGeometry>
                </mxCell>
                <mxCell id="zFhJoIv4NXYZAILvsHAa-25" value="" style="endArrow=block;dashed=1;endFill=0;endSize=12;html=1;entryX=0.25;entryY=1;entryDx=0;entryDy=0;" parent="zFhJoIv4NXYZAILvsHAa-27" target="zFhJoIv4NXYZAILvsHAa-18" edge="1">
                    <mxGeometry width="160" relative="1" as="geometry">
                        <mxPoint x="170" y="310" as="sourcePoint"/>
                        <mxPoint x="62" y="110" as="targetPoint"/>
                        <Array as="points">
                            <mxPoint x="84" y="310"/>
                        </Array>
                    </mxGeometry>
                </mxCell>
                <mxCell id="zFhJoIv4NXYZAILvsHAa-26" value="" style="endArrow=block;dashed=1;endFill=0;endSize=12;html=1;entryX=0.25;entryY=1;entryDx=0;entryDy=0;" parent="zFhJoIv4NXYZAILvsHAa-27" target="zFhJoIv4NXYZAILvsHAa-18" edge="1">
                    <mxGeometry width="160" relative="1" as="geometry">
                        <mxPoint x="170" y="390" as="sourcePoint"/>
                        <mxPoint x="37" y="110" as="targetPoint"/>
                        <Array as="points">
                            <mxPoint x="84" y="390"/>
                        </Array>
                    </mxGeometry>
                </mxCell>
                <mxCell id="zFhJoIv4NXYZAILvsHAa-30" value="" style="endArrow=block;startArrow=block;endFill=1;startFill=1;html=1;exitX=1.007;exitY=0.423;exitDx=0;exitDy=0;exitPerimeter=0;entryX=0;entryY=0.75;entryDx=0;entryDy=0;" parent="zFhJoIv4NXYZAILvsHAa-27" edge="1">
                    <mxGeometry width="160" relative="1" as="geometry">
                        <mxPoint x="-19.299999999999727" y="260.65999999999997" as="sourcePoint"/>
                        <mxPoint x="175" y="260" as="targetPoint"/>
                    </mxGeometry>
                </mxCell>
                <mxCell id="zFhJoIv4NXYZAILvsHAa-31" value="" style="endArrow=block;startArrow=block;endFill=1;startFill=1;html=1;exitX=1.007;exitY=0.423;exitDx=0;exitDy=0;exitPerimeter=0;entryX=0;entryY=0.75;entryDx=0;entryDy=0;" parent="zFhJoIv4NXYZAILvsHAa-27" edge="1">
                    <mxGeometry width="160" relative="1" as="geometry">
                        <mxPoint x="-19.299999999999727" y="330.65999999999997" as="sourcePoint"/>
                        <mxPoint x="175" y="330" as="targetPoint"/>
                    </mxGeometry>
                </mxCell>
                <mxCell id="zFhJoIv4NXYZAILvsHAa-32" value="" style="endArrow=block;startArrow=block;endFill=1;startFill=1;html=1;exitX=1.007;exitY=0.423;exitDx=0;exitDy=0;exitPerimeter=0;entryX=0;entryY=0.75;entryDx=0;entryDy=0;" parent="zFhJoIv4NXYZAILvsHAa-27" edge="1">
                    <mxGeometry width="160" relative="1" as="geometry">
                        <mxPoint x="-19.299999999999727" y="410.65999999999997" as="sourcePoint"/>
                        <mxPoint x="175" y="410" as="targetPoint"/>
                    </mxGeometry>
                </mxCell>
                <mxCell id="zFhJoIv4NXYZAILvsHAa-28" value="Messaging&lt;br&gt;Service&lt;br&gt;APIs" style="html=1;" parent="1" vertex="1">
                    <mxGeometry x="940" y="-20" width="100" height="460" as="geometry"/>
                </mxCell>
                <mxCell id="zFhJoIv4NXYZAILvsHAa-29" value="" style="endArrow=block;startArrow=block;endFill=1;startFill=1;html=1;entryX=0;entryY=0.75;entryDx=0;entryDy=0;" parent="1" target="zFhJoIv4NXYZAILvsHAa-1" edge="1">
                    <mxGeometry width="160" relative="1" as="geometry">
                        <mxPoint x="1041" y="197" as="sourcePoint"/>
                        <mxPoint x="1220" y="510" as="targetPoint"/>
                    </mxGeometry>
                </mxCell>
                <mxCell id="zFhJoIv4NXYZAILvsHAa-33" value="&lt;b&gt;MessageHandler&lt;/b&gt;" style="swimlane;html=1;fontStyle=0;childLayout=stackLayout;horizontal=1;startSize=26;fillColor=none;horizontalStack=0;resizeParent=1;resizeLast=0;collapsible=1;marginBottom=0;swimlaneFillColor=#ffffff;rounded=0;shadow=0;comic=0;labelBackgroundColor=none;strokeWidth=1;fontFamily=Verdana;fontSize=10;align=center;" parent="1" vertex="1">
                    <mxGeometry x="1620" y="149" width="300" height="78" as="geometry"/>
                </mxCell>
                <mxCell id="zFhJoIv4NXYZAILvsHAa-37" value="" style="line;strokeWidth=1;fillColor=none;align=left;verticalAlign=middle;spacingTop=-1;spacingLeft=3;spacingRight=3;rotatable=0;labelPosition=right;points=[];portConstraint=eastwest;" parent="zFhJoIv4NXYZAILvsHAa-33" vertex="1">
                    <mxGeometry y="26" width="300" height="8" as="geometry"/>
                </mxCell>
                <mxCell id="zFhJoIv4NXYZAILvsHAa-38" value="+ HandleMessage(Message): void" style="text;strokeColor=none;fillColor=none;align=left;verticalAlign=top;spacingLeft=4;spacingRight=4;overflow=hidden;rotatable=0;points=[[0,0.5],[1,0.5]];portConstraint=eastwest;" parent="zFhJoIv4NXYZAILvsHAa-33" vertex="1">
                    <mxGeometry y="34" width="300" height="26" as="geometry"/>
                </mxCell>
                <mxCell id="zFhJoIv4NXYZAILvsHAa-39" value="&lt;b style=&quot;font-family: &amp;#34;helvetica&amp;#34; ; font-size: 12px&quot;&gt;MessagingWrapper&lt;/b&gt;" style="swimlane;html=1;fontStyle=0;childLayout=stackLayout;horizontal=1;startSize=26;fillColor=none;horizontalStack=0;resizeParent=1;resizeLast=0;collapsible=1;marginBottom=0;swimlaneFillColor=#ffffff;rounded=0;shadow=0;comic=0;labelBackgroundColor=none;strokeWidth=1;fontFamily=Verdana;fontSize=10;align=center;" parent="1" vertex="1">
                    <mxGeometry x="1420" y="-20" width="180" height="140" as="geometry"/>
                </mxCell>
                <mxCell id="zFhJoIv4NXYZAILvsHAa-40" value="+ Message: string" style="text;html=1;strokeColor=none;fillColor=none;align=left;verticalAlign=top;spacingLeft=4;spacingRight=4;whiteSpace=wrap;overflow=hidden;rotatable=0;points=[[0,0.5],[1,0.5]];portConstraint=eastwest;" parent="zFhJoIv4NXYZAILvsHAa-39" vertex="1">
                    <mxGeometry y="26" width="180" height="24" as="geometry"/>
                </mxCell>
                <mxCell id="zFhJoIv4NXYZAILvsHAa-42" value="+ Service: MessagingService" style="text;html=1;strokeColor=none;fillColor=none;align=left;verticalAlign=top;spacingLeft=4;spacingRight=4;whiteSpace=wrap;overflow=hidden;rotatable=0;points=[[0,0.5],[1,0.5]];portConstraint=eastwest;" parent="zFhJoIv4NXYZAILvsHAa-39" vertex="1">
                    <mxGeometry y="50" width="180" height="20" as="geometry"/>
                </mxCell>
                <mxCell id="zFhJoIv4NXYZAILvsHAa-41" value="+ Account: string" style="text;html=1;strokeColor=none;fillColor=none;align=left;verticalAlign=top;spacingLeft=4;spacingRight=4;whiteSpace=wrap;overflow=hidden;rotatable=0;points=[[0,0.5],[1,0.5]];portConstraint=eastwest;" parent="zFhJoIv4NXYZAILvsHAa-39" vertex="1">
                    <mxGeometry y="70" width="180" height="20" as="geometry"/>
                </mxCell>
                <mxCell id="zFhJoIv4NXYZAILvsHAa-68" value="+ UserId: int" style="text;html=1;strokeColor=none;fillColor=none;align=left;verticalAlign=top;spacingLeft=4;spacingRight=4;whiteSpace=wrap;overflow=hidden;rotatable=0;points=[[0,0.5],[1,0.5]];portConstraint=eastwest;" parent="zFhJoIv4NXYZAILvsHAa-39" vertex="1">
                    <mxGeometry y="90" width="180" height="20" as="geometry"/>
                </mxCell>
                <mxCell id="45" value="+ UserStatus: UserStatus" style="text;html=1;strokeColor=none;fillColor=none;align=left;verticalAlign=top;spacingLeft=4;spacingRight=4;whiteSpace=wrap;overflow=hidden;rotatable=0;points=[[0,0.5],[1,0.5]];portConstraint=eastwest;" vertex="1" parent="zFhJoIv4NXYZAILvsHAa-39">
                    <mxGeometry y="110" width="180" height="20" as="geometry"/>
                </mxCell>
                <mxCell id="zFhJoIv4NXYZAILvsHAa-43" value="" style="endArrow=block;dashed=1;endFill=0;endSize=12;html=1;exitX=1;exitY=0.25;exitDx=0;exitDy=0;entryX=0.5;entryY=1;entryDx=0;entryDy=0;" parent="1" source="zFhJoIv4NXYZAILvsHAa-1" target="zFhJoIv4NXYZAILvsHAa-39" edge="1">
                    <mxGeometry width="160" relative="1" as="geometry">
                        <mxPoint x="1500" y="190" as="sourcePoint"/>
                        <mxPoint x="1660" y="190" as="targetPoint"/>
                        <Array as="points">
                            <mxPoint x="1510" y="167"/>
                        </Array>
                    </mxGeometry>
                </mxCell>
                <mxCell id="zFhJoIv4NXYZAILvsHAa-44" value="" style="endArrow=block;dashed=1;endFill=0;endSize=12;html=1;exitX=1;exitY=0.25;exitDx=0;exitDy=0;entryX=0.5;entryY=1;entryDx=0;entryDy=0;" parent="1" source="zFhJoIv4NXYZAILvsHAa-20" target="zFhJoIv4NXYZAILvsHAa-39" edge="1">
                    <mxGeometry width="160" relative="1" as="geometry">
                        <mxPoint x="1520" y="260" as="sourcePoint"/>
                        <mxPoint x="1480" y="140" as="targetPoint"/>
                        <Array as="points">
                            <mxPoint x="1510" y="242"/>
                        </Array>
                    </mxGeometry>
                </mxCell>
                <mxCell id="zFhJoIv4NXYZAILvsHAa-45" value="" style="endArrow=block;dashed=1;endFill=0;endSize=12;html=1;exitX=1;exitY=0.25;exitDx=0;exitDy=0;entryX=0.5;entryY=1;entryDx=0;entryDy=0;" parent="1" source="zFhJoIv4NXYZAILvsHAa-21" target="zFhJoIv4NXYZAILvsHAa-39" edge="1">
                    <mxGeometry width="160" relative="1" as="geometry">
                        <mxPoint x="1560" y="330" as="sourcePoint"/>
                        <mxPoint x="1500" y="140" as="targetPoint"/>
                        <Array as="points">
                            <mxPoint x="1510" y="315"/>
                        </Array>
                    </mxGeometry>
                </mxCell>
                <mxCell id="zFhJoIv4NXYZAILvsHAa-46" value="" style="endArrow=block;dashed=1;endFill=0;endSize=12;html=1;exitX=1;exitY=0.25;exitDx=0;exitDy=0;entryX=0.5;entryY=1;entryDx=0;entryDy=0;" parent="1" source="zFhJoIv4NXYZAILvsHAa-22" target="zFhJoIv4NXYZAILvsHAa-39" edge="1">
                    <mxGeometry width="160" relative="1" as="geometry">
                        <mxPoint x="1590" y="330" as="sourcePoint"/>
                        <mxPoint x="1520" y="140" as="targetPoint"/>
                        <Array as="points">
                            <mxPoint x="1510" y="395"/>
                        </Array>
                    </mxGeometry>
                </mxCell>
                <mxCell id="zFhJoIv4NXYZAILvsHAa-48" value="Use" style="endArrow=open;endSize=12;dashed=1;html=1;exitX=1;exitY=0.5;exitDx=0;exitDy=0;entryX=0;entryY=0.25;entryDx=0;entryDy=0;" parent="1" source="zFhJoIv4NXYZAILvsHAa-1" target="zFhJoIv4NXYZAILvsHAa-33" edge="1">
                    <mxGeometry x="-0.5378" width="160" relative="1" as="geometry">
                        <mxPoint x="1400" y="190" as="sourcePoint"/>
                        <mxPoint x="1620" y="182" as="targetPoint"/>
                        <Array as="points">
                            <mxPoint x="1590" y="182"/>
                            <mxPoint x="1590" y="169"/>
                        </Array>
                        <mxPoint as="offset"/>
                    </mxGeometry>
                </mxCell>
                <mxCell id="zFhJoIv4NXYZAILvsHAa-49" value="Use" style="endArrow=open;endSize=12;dashed=1;html=1;exitX=1;exitY=0.5;exitDx=0;exitDy=0;entryX=0;entryY=0.25;entryDx=0;entryDy=0;" parent="1" source="zFhJoIv4NXYZAILvsHAa-20" target="zFhJoIv4NXYZAILvsHAa-33" edge="1">
                    <mxGeometry x="-0.6358" width="160" relative="1" as="geometry">
                        <mxPoint x="1420" y="270" as="sourcePoint"/>
                        <mxPoint x="1620" y="180" as="targetPoint"/>
                        <Array as="points">
                            <mxPoint x="1590" y="257"/>
                            <mxPoint x="1590" y="169"/>
                        </Array>
                        <mxPoint as="offset"/>
                    </mxGeometry>
                </mxCell>
                <mxCell id="zFhJoIv4NXYZAILvsHAa-50" value="Use" style="endArrow=open;endSize=12;dashed=1;html=1;exitX=1;exitY=0.5;exitDx=0;exitDy=0;entryX=0;entryY=0.25;entryDx=0;entryDy=0;" parent="1" source="zFhJoIv4NXYZAILvsHAa-21" target="zFhJoIv4NXYZAILvsHAa-33" edge="1">
                    <mxGeometry x="-0.6982" width="160" relative="1" as="geometry">
                        <mxPoint x="1410" y="330" as="sourcePoint"/>
                        <mxPoint x="1570" y="330" as="targetPoint"/>
                        <Array as="points">
                            <mxPoint x="1590" y="330"/>
                            <mxPoint x="1590" y="169"/>
                        </Array>
                        <mxPoint as="offset"/>
                    </mxGeometry>
                </mxCell>
                <mxCell id="zFhJoIv4NXYZAILvsHAa-51" value="Use" style="endArrow=open;endSize=12;dashed=1;html=1;exitX=1;exitY=0.5;exitDx=0;exitDy=0;entryX=0;entryY=0.25;entryDx=0;entryDy=0;" parent="1" source="zFhJoIv4NXYZAILvsHAa-22" target="zFhJoIv4NXYZAILvsHAa-33" edge="1">
                    <mxGeometry x="-0.7349" width="160" relative="1" as="geometry">
                        <mxPoint x="1720" y="340" as="sourcePoint"/>
                        <mxPoint x="1620" y="220" as="targetPoint"/>
                        <Array as="points">
                            <mxPoint x="1590" y="410"/>
                            <mxPoint x="1590" y="169"/>
                        </Array>
                        <mxPoint as="offset"/>
                    </mxGeometry>
                </mxCell>
                <mxCell id="zFhJoIv4NXYZAILvsHAa-58" value="&lt;b&gt;UserAuthenticator&lt;/b&gt;" style="swimlane;html=1;fontStyle=0;childLayout=stackLayout;horizontal=1;startSize=26;fillColor=none;horizontalStack=0;resizeParent=1;resizeLast=0;collapsible=1;marginBottom=0;swimlaneFillColor=#ffffff;rounded=0;shadow=0;comic=0;labelBackgroundColor=none;strokeWidth=1;fontFamily=Verdana;fontSize=10;align=center;" parent="1" vertex="1">
                    <mxGeometry x="1620" y="270" width="300" height="112" as="geometry"/>
                </mxCell>
                <mxCell id="zFhJoIv4NXYZAILvsHAa-59" value="" style="line;strokeWidth=1;fillColor=none;align=left;verticalAlign=middle;spacingTop=-1;spacingLeft=3;spacingRight=3;rotatable=0;labelPosition=right;points=[];portConstraint=eastwest;" parent="zFhJoIv4NXYZAILvsHAa-58" vertex="1">
                    <mxGeometry y="26" width="300" height="8" as="geometry"/>
                </mxCell>
                <mxCell id="zFhJoIv4NXYZAILvsHAa-60" value="+ GetAccountHasUser(MessagingService, string): bool" style="text;strokeColor=none;fillColor=none;align=left;verticalAlign=top;spacingLeft=4;spacingRight=4;overflow=hidden;rotatable=0;points=[[0,0.5],[1,0.5]];portConstraint=eastwest;" parent="zFhJoIv4NXYZAILvsHAa-58" vertex="1">
                    <mxGeometry y="34" width="300" height="26" as="geometry"/>
                </mxCell>
                <mxCell id="zFhJoIv4NXYZAILvsHAa-62" value="+ GetUserIdForAccount(MessagingService, string): int" style="text;strokeColor=none;fillColor=none;align=left;verticalAlign=top;spacingLeft=4;spacingRight=4;overflow=hidden;rotatable=0;points=[[0,0.5],[1,0.5]];portConstraint=eastwest;" parent="zFhJoIv4NXYZAILvsHAa-58" vertex="1">
                    <mxGeometry y="60" width="300" height="26" as="geometry"/>
                </mxCell>
                <mxCell id="46" value="+ GetUserIsSuspended(int): bool" style="text;strokeColor=none;fillColor=none;align=left;verticalAlign=top;spacingLeft=4;spacingRight=4;overflow=hidden;rotatable=0;points=[[0,0.5],[1,0.5]];portConstraint=eastwest;" vertex="1" parent="zFhJoIv4NXYZAILvsHAa-58">
                    <mxGeometry y="86" width="300" height="26" as="geometry"/>
                </mxCell>
                <mxCell id="zFhJoIv4NXYZAILvsHAa-63" value="Use" style="endArrow=open;endSize=12;dashed=1;html=1;exitX=0.5;exitY=1;exitDx=0;exitDy=0;entryX=0.5;entryY=0;entryDx=0;entryDy=0;" parent="1" source="zFhJoIv4NXYZAILvsHAa-33" target="zFhJoIv4NXYZAILvsHAa-58" edge="1">
                    <mxGeometry width="160" relative="1" as="geometry">
                        <mxPoint x="1800" y="280" as="sourcePoint"/>
                        <mxPoint x="1683" y="340" as="targetPoint"/>
                    </mxGeometry>
                </mxCell>
                <mxCell id="zFhJoIv4NXYZAILvsHAa-67" value="Use" style="endArrow=open;endSize=12;dashed=1;html=1;exitX=0.5;exitY=0;exitDx=0;exitDy=0;" parent="1" source="zFhJoIv4NXYZAILvsHAa-33" target="136" edge="1">
                    <mxGeometry x="-0.9617" width="160" relative="1" as="geometry">
                        <mxPoint x="1840" y="90" as="sourcePoint"/>
                        <mxPoint x="2039" y="45" as="targetPoint"/>
                        <Array as="points">
                            <mxPoint x="1770" y="110"/>
                            <mxPoint x="2280" y="110"/>
                        </Array>
                        <mxPoint as="offset"/>
                    </mxGeometry>
                </mxCell>
                <mxCell id="zFhJoIv4NXYZAILvsHAa-140" value="Use" style="endArrow=open;endSize=12;dashed=1;html=1;exitX=1;exitY=0.5;exitDx=0;exitDy=0;entryX=0;entryY=0.5;entryDx=0;entryDy=0;" parent="1" source="zFhJoIv4NXYZAILvsHAa-62" target="147" edge="1">
                    <mxGeometry x="-0.9408" width="160" relative="1" as="geometry">
                        <mxPoint x="1950" y="325" as="sourcePoint"/>
                        <mxPoint x="2660" y="294" as="targetPoint"/>
                        <Array as="points">
                            <mxPoint x="2561" y="343"/>
                            <mxPoint x="2561" y="287"/>
                        </Array>
                        <mxPoint as="offset"/>
                    </mxGeometry>
                </mxCell>
                <mxCell id="zFhJoIv4NXYZAILvsHAa-152" value="&lt;b&gt;ResponseHandler&lt;/b&gt;" style="swimlane;html=1;fontStyle=0;childLayout=stackLayout;horizontal=1;startSize=26;fillColor=none;horizontalStack=0;resizeParent=1;resizeLast=0;collapsible=1;marginBottom=0;swimlaneFillColor=#ffffff;rounded=0;shadow=0;comic=0;labelBackgroundColor=none;strokeWidth=1;fontFamily=Verdana;fontSize=10;align=center;" parent="1" vertex="1">
                    <mxGeometry x="1620" y="407" width="300" height="78" as="geometry"/>
                </mxCell>
                <mxCell id="zFhJoIv4NXYZAILvsHAa-153" value="" style="line;strokeWidth=1;fillColor=none;align=left;verticalAlign=middle;spacingTop=-1;spacingLeft=3;spacingRight=3;rotatable=0;labelPosition=right;points=[];portConstraint=eastwest;" parent="zFhJoIv4NXYZAILvsHAa-152" vertex="1">
                    <mxGeometry y="26" width="300" height="8" as="geometry"/>
                </mxCell>
                <mxCell id="zFhJoIv4NXYZAILvsHAa-154" value="+ SendMessage(string): void" style="text;strokeColor=none;fillColor=none;align=left;verticalAlign=top;spacingLeft=4;spacingRight=4;overflow=hidden;rotatable=0;points=[[0,0.5],[1,0.5]];portConstraint=eastwest;" parent="zFhJoIv4NXYZAILvsHAa-152" vertex="1">
                    <mxGeometry y="34" width="300" height="26" as="geometry"/>
                </mxCell>
                <mxCell id="zFhJoIv4NXYZAILvsHAa-159" value="Use" style="endArrow=open;endSize=12;dashed=1;html=1;fontColor=none;exitX=0;exitY=0.5;exitDx=0;exitDy=0;entryX=1;entryY=0.75;entryDx=0;entryDy=0;" parent="1" source="zFhJoIv4NXYZAILvsHAa-154" target="zFhJoIv4NXYZAILvsHAa-1" edge="1">
                    <mxGeometry x="0.6058" width="160" relative="1" as="geometry">
                        <mxPoint x="1480" y="270" as="sourcePoint"/>
                        <mxPoint x="1640" y="270" as="targetPoint"/>
                        <Array as="points">
                            <mxPoint x="1540" y="454"/>
                            <mxPoint x="1540" y="197"/>
                        </Array>
                        <mxPoint as="offset"/>
                    </mxGeometry>
                </mxCell>
                <mxCell id="zFhJoIv4NXYZAILvsHAa-160" value="Use" style="endArrow=open;endSize=12;dashed=1;html=1;fontColor=none;exitX=0;exitY=0.5;exitDx=0;exitDy=0;entryX=1;entryY=0.75;entryDx=0;entryDy=0;" parent="1" source="zFhJoIv4NXYZAILvsHAa-154" target="zFhJoIv4NXYZAILvsHAa-20" edge="1">
                    <mxGeometry x="0.5332" width="160" relative="1" as="geometry">
                        <mxPoint x="1480" y="270" as="sourcePoint"/>
                        <mxPoint x="1640" y="270" as="targetPoint"/>
                        <Array as="points">
                            <mxPoint x="1540" y="454"/>
                            <mxPoint x="1540" y="272"/>
                        </Array>
                        <mxPoint as="offset"/>
                    </mxGeometry>
                </mxCell>
                <mxCell id="zFhJoIv4NXYZAILvsHAa-161" value="Use" style="endArrow=open;endSize=12;dashed=1;html=1;fontColor=none;exitX=0;exitY=0.5;exitDx=0;exitDy=0;entryX=1;entryY=0.75;entryDx=0;entryDy=0;" parent="1" source="zFhJoIv4NXYZAILvsHAa-154" target="zFhJoIv4NXYZAILvsHAa-21" edge="1">
                    <mxGeometry x="0.4311" width="160" relative="1" as="geometry">
                        <mxPoint x="1480" y="270" as="sourcePoint"/>
                        <mxPoint x="1640" y="270" as="targetPoint"/>
                        <Array as="points">
                            <mxPoint x="1540" y="454"/>
                            <mxPoint x="1540" y="345"/>
                        </Array>
                        <mxPoint as="offset"/>
                    </mxGeometry>
                </mxCell>
                <mxCell id="zFhJoIv4NXYZAILvsHAa-162" value="Use" style="endArrow=open;endSize=12;dashed=1;html=1;fontColor=none;exitX=0;exitY=0.5;exitDx=0;exitDy=0;entryX=1;entryY=0.75;entryDx=0;entryDy=0;" parent="1" source="zFhJoIv4NXYZAILvsHAa-154" target="zFhJoIv4NXYZAILvsHAa-22" edge="1">
                    <mxGeometry x="0.252" width="160" relative="1" as="geometry">
                        <mxPoint x="1480" y="270" as="sourcePoint"/>
                        <mxPoint x="1640" y="270" as="targetPoint"/>
                        <Array as="points">
                            <mxPoint x="1540" y="454"/>
                            <mxPoint x="1540" y="425"/>
                        </Array>
                        <mxPoint as="offset"/>
                    </mxGeometry>
                </mxCell>
                <mxCell id="Jb-GhQU4fbCO7L-dInHe-118" value="&lt;p style=&quot;margin: 0px ; margin-top: 4px ; text-align: center&quot;&gt;&lt;i&gt;&amp;lt;&amp;lt;Enumeration&amp;gt;&amp;gt;&lt;/i&gt;&lt;br&gt;&lt;b&gt;Currency&lt;/b&gt;&lt;/p&gt;&lt;hr size=&quot;1&quot;&gt;&lt;p style=&quot;margin: 0px ; margin-left: 4px&quot;&gt;Dolar&lt;/p&gt;&lt;p style=&quot;margin: 0px ; margin-left: 4px&quot;&gt;Urugayan Peso&lt;/p&gt;&lt;p style=&quot;margin: 0px ; margin-left: 4px&quot;&gt;&lt;span&gt;Other&lt;/span&gt;&lt;br&gt;&lt;/p&gt;" style="verticalAlign=top;align=left;overflow=fill;fontSize=12;fontFamily=Helvetica;html=1;rounded=0;shadow=0;comic=0;labelBackgroundColor=none;strokeWidth=1" parent="1" vertex="1">
                    <mxGeometry x="4537" y="474" width="120" height="100" as="geometry"/>
                </mxCell>
                <mxCell id="44" value="Use" style="endArrow=open;endSize=12;dashed=1;html=1;exitX=1;exitY=0.5;exitDx=0;exitDy=0;entryX=1;entryY=0.5;entryDx=0;entryDy=0;" edge="1" parent="1" source="zFhJoIv4NXYZAILvsHAa-38" target="zFhJoIv4NXYZAILvsHAa-154">
                    <mxGeometry x="-0.8817" width="160" relative="1" as="geometry">
                        <mxPoint x="1854.9999999999995" y="159" as="sourcePoint"/>
                        <mxPoint x="1970" y="76.99999999999977" as="targetPoint"/>
                        <Array as="points">
                            <mxPoint x="1960" y="196"/>
                            <mxPoint x="1960" y="454"/>
                        </Array>
                        <mxPoint as="offset"/>
                    </mxGeometry>
                </mxCell>
                <mxCell id="zFhJoIv4NXYZAILvsHAa-18" value="&lt;p style=&quot;margin: 0px ; margin-top: 4px ; text-align: center&quot;&gt;&lt;i&gt;&amp;lt;&amp;lt;Interface&amp;gt;&amp;gt;&lt;/i&gt;&lt;br&gt;&lt;b&gt;IMessageAPI&lt;/b&gt;&lt;/p&gt;&lt;hr size=&quot;1&quot;&gt;&lt;p style=&quot;margin: 0px ; margin-left: 4px&quot;&gt;+ Service: MessagingService&lt;/p&gt;&lt;hr size=&quot;1&quot;&gt;&lt;p style=&quot;margin: 0px ; margin-left: 4px&quot;&gt;+ RecieveMessage(string, string): void&lt;/p&gt;&lt;p style=&quot;margin: 0px ; margin-left: 4px&quot;&gt;+ SendMessage(string, string): void&lt;/p&gt;" style="verticalAlign=top;align=left;overflow=fill;fontSize=12;fontFamily=Helvetica;html=1;rounded=0;shadow=0;comic=0;labelBackgroundColor=none;strokeWidth=1" parent="1" vertex="1">
                    <mxGeometry x="1060" y="-20" width="335" height="111" as="geometry"/>
                </mxCell>
                <mxCell id="zFhJoIv4NXYZAILvsHAa-24" value="" style="endArrow=block;dashed=1;endFill=0;endSize=12;html=1;exitX=0;exitY=0.5;exitDx=0;exitDy=0;entryX=0.25;entryY=1;entryDx=0;entryDy=0;" parent="1" source="zFhJoIv4NXYZAILvsHAa-20" target="zFhJoIv4NXYZAILvsHAa-18" edge="1">
                    <mxGeometry width="160" relative="1" as="geometry">
                        <mxPoint x="1205.1" y="180.17" as="sourcePoint"/>
                        <mxPoint x="1150" y="130" as="targetPoint"/>
                        <Array as="points">
                            <mxPoint x="1144" y="257"/>
                        </Array>
                    </mxGeometry>
                </mxCell>
                <mxCell id="57" value="SessionsContainer" style="swimlane;fontStyle=1;align=center;verticalAlign=top;childLayout=stackLayout;horizontal=1;startSize=26;horizontalStack=0;resizeParent=1;resizeParentMax=0;resizeLast=0;collapsible=1;marginBottom=0;rounded=0;shadow=0;glass=0;sketch=0;" vertex="1" parent="1">
                    <mxGeometry x="1817" y="-354" width="308" height="60" as="geometry"/>
                </mxCell>
                <mxCell id="59" value="" style="line;strokeWidth=1;fillColor=none;align=left;verticalAlign=middle;spacingTop=-1;spacingLeft=3;spacingRight=3;rotatable=0;labelPosition=right;points=[];portConstraint=eastwest;" vertex="1" parent="57">
                    <mxGeometry y="26" width="308" height="8" as="geometry"/>
                </mxCell>
                <mxCell id="60" value="+ GetSession(MessagingService, string): Session" style="text;strokeColor=none;fillColor=none;align=left;verticalAlign=top;spacingLeft=4;spacingRight=4;overflow=hidden;rotatable=0;points=[[0,0.5],[1,0.5]];portConstraint=eastwest;" vertex="1" parent="57">
                    <mxGeometry y="34" width="308" height="26" as="geometry"/>
                </mxCell>
                <mxCell id="61" value="DiscussionEntry" style="swimlane;fontStyle=1;align=center;verticalAlign=top;childLayout=stackLayout;horizontal=1;startSize=26;horizontalStack=0;resizeParent=1;resizeParentMax=0;resizeLast=0;collapsible=1;marginBottom=0;rounded=0;shadow=0;glass=0;sketch=0;" vertex="1" parent="1">
                    <mxGeometry x="2171" y="-380" width="217" height="86" as="geometry"/>
                </mxCell>
                <mxCell id="62" value="- firstHandler: DiscussionHandlerBase" style="text;strokeColor=none;fillColor=none;align=left;verticalAlign=top;spacingLeft=4;spacingRight=4;overflow=hidden;rotatable=0;points=[[0,0.5],[1,0.5]];portConstraint=eastwest;" vertex="1" parent="61">
                    <mxGeometry y="26" width="217" height="26" as="geometry"/>
                </mxCell>
                <mxCell id="63" value="" style="line;strokeWidth=1;fillColor=none;align=left;verticalAlign=middle;spacingTop=-1;spacingLeft=3;spacingRight=3;rotatable=0;labelPosition=right;points=[];portConstraint=eastwest;" vertex="1" parent="61">
                    <mxGeometry y="52" width="217" height="8" as="geometry"/>
                </mxCell>
                <mxCell id="64" value="+ Start(DiscussionSelector): string" style="text;strokeColor=none;fillColor=none;align=left;verticalAlign=top;spacingLeft=4;spacingRight=4;overflow=hidden;rotatable=0;points=[[0,0.5],[1,0.5]];portConstraint=eastwest;" vertex="1" parent="61">
                    <mxGeometry y="60" width="217" height="26" as="geometry"/>
                </mxCell>
                <mxCell id="65" value="DiscussionSelector" style="swimlane;fontStyle=1;align=center;verticalAlign=top;childLayout=stackLayout;horizontal=1;startSize=26;horizontalStack=0;resizeParent=1;resizeParentMax=0;resizeLast=0;collapsible=1;marginBottom=0;rounded=0;shadow=0;glass=0;sketch=0;" vertex="1" parent="1">
                    <mxGeometry x="2431" y="-380" width="160" height="86" as="geometry"/>
                </mxCell>
                <mxCell id="66" value="+ field: type" style="text;strokeColor=none;fillColor=none;align=left;verticalAlign=top;spacingLeft=4;spacingRight=4;overflow=hidden;rotatable=0;points=[[0,0.5],[1,0.5]];portConstraint=eastwest;" vertex="1" parent="65">
                    <mxGeometry y="26" width="160" height="26" as="geometry"/>
                </mxCell>
                <mxCell id="67" value="" style="line;strokeWidth=1;fillColor=none;align=left;verticalAlign=middle;spacingTop=-1;spacingLeft=3;spacingRight=3;rotatable=0;labelPosition=right;points=[];portConstraint=eastwest;" vertex="1" parent="65">
                    <mxGeometry y="52" width="160" height="8" as="geometry"/>
                </mxCell>
                <mxCell id="68" value="+ method(type): type" style="text;strokeColor=none;fillColor=none;align=left;verticalAlign=top;spacingLeft=4;spacingRight=4;overflow=hidden;rotatable=0;points=[[0,0.5],[1,0.5]];portConstraint=eastwest;" vertex="1" parent="65">
                    <mxGeometry y="60" width="160" height="26" as="geometry"/>
                </mxCell>
                <mxCell id="73" value="Session" style="swimlane;fontStyle=1;align=center;verticalAlign=top;childLayout=stackLayout;horizontal=1;startSize=26;horizontalStack=0;resizeParent=1;resizeParentMax=0;resizeLast=0;collapsible=1;marginBottom=0;rounded=0;shadow=0;glass=0;sketch=0;" vertex="1" parent="1">
                    <mxGeometry x="1817" y="-580" width="198" height="164" as="geometry"/>
                </mxCell>
                <mxCell id="74" value="+ Service: MessagingService" style="text;strokeColor=none;fillColor=none;align=left;verticalAlign=top;spacingLeft=4;spacingRight=4;overflow=hidden;rotatable=0;points=[[0,0.5],[1,0.5]];portConstraint=eastwest;" vertex="1" parent="73">
                    <mxGeometry y="26" width="198" height="26" as="geometry"/>
                </mxCell>
                <mxCell id="85" value="+ Account: string" style="text;strokeColor=none;fillColor=none;align=left;verticalAlign=top;spacingLeft=4;spacingRight=4;overflow=hidden;rotatable=0;points=[[0,0.5],[1,0.5]];portConstraint=eastwest;" vertex="1" parent="73">
                    <mxGeometry y="52" width="198" height="26" as="geometry"/>
                </mxCell>
                <mxCell id="86" value="+ MenuLocation: string" style="text;strokeColor=none;fillColor=none;align=left;verticalAlign=top;spacingLeft=4;spacingRight=4;overflow=hidden;rotatable=0;points=[[0,0.5],[1,0.5]];portConstraint=eastwest;" vertex="1" parent="73">
                    <mxGeometry y="78" width="198" height="26" as="geometry"/>
                </mxCell>
                <mxCell id="87" value="+ LastActivity: DateTime" style="text;strokeColor=none;fillColor=none;align=left;verticalAlign=top;spacingLeft=4;spacingRight=4;overflow=hidden;rotatable=0;points=[[0,0.5],[1,0.5]];portConstraint=eastwest;" vertex="1" parent="73">
                    <mxGeometry y="104" width="198" height="26" as="geometry"/>
                </mxCell>
                <mxCell id="75" value="" style="line;strokeWidth=1;fillColor=none;align=left;verticalAlign=middle;spacingTop=-1;spacingLeft=3;spacingRight=3;rotatable=0;labelPosition=right;points=[];portConstraint=eastwest;" vertex="1" parent="73">
                    <mxGeometry y="130" width="198" height="8" as="geometry"/>
                </mxCell>
                <mxCell id="76" value="+ method(type): type" style="text;strokeColor=none;fillColor=none;align=left;verticalAlign=top;spacingLeft=4;spacingRight=4;overflow=hidden;rotatable=0;points=[[0,0.5],[1,0.5]];portConstraint=eastwest;" vertex="1" parent="73">
                    <mxGeometry y="138" width="198" height="26" as="geometry"/>
                </mxCell>
                <mxCell id="79" value="DProcessData" style="swimlane;fontStyle=1;align=center;verticalAlign=top;childLayout=stackLayout;horizontal=1;startSize=26;horizontalStack=0;resizeParent=1;resizeParentMax=0;resizeLast=0;collapsible=1;marginBottom=0;rounded=0;shadow=0;glass=0;sketch=0;" vertex="1" parent="1">
                    <mxGeometry x="2059" y="-580" width="160" height="138" as="geometry"/>
                </mxCell>
                <mxCell id="80" value="+ Code: string" style="text;strokeColor=none;fillColor=none;align=left;verticalAlign=top;spacingLeft=4;spacingRight=4;overflow=hidden;rotatable=0;points=[[0,0.5],[1,0.5]];portConstraint=eastwest;" vertex="1" parent="79">
                    <mxGeometry y="26" width="160" height="26" as="geometry"/>
                </mxCell>
                <mxCell id="83" value="+ TypeOfData: Type" style="text;strokeColor=none;fillColor=none;align=left;verticalAlign=top;spacingLeft=4;spacingRight=4;overflow=hidden;rotatable=0;points=[[0,0.5],[1,0.5]];portConstraint=eastwest;" vertex="1" parent="79">
                    <mxGeometry y="52" width="160" height="26" as="geometry"/>
                </mxCell>
                <mxCell id="84" value="+ Initiator: string" style="text;strokeColor=none;fillColor=none;align=left;verticalAlign=top;spacingLeft=4;spacingRight=4;overflow=hidden;rotatable=0;points=[[0,0.5],[1,0.5]];portConstraint=eastwest;" vertex="1" parent="79">
                    <mxGeometry y="78" width="160" height="26" as="geometry"/>
                </mxCell>
                <mxCell id="81" value="" style="line;strokeWidth=1;fillColor=none;align=left;verticalAlign=middle;spacingTop=-1;spacingLeft=3;spacingRight=3;rotatable=0;labelPosition=right;points=[];portConstraint=eastwest;" vertex="1" parent="79">
                    <mxGeometry y="104" width="160" height="8" as="geometry"/>
                </mxCell>
                <mxCell id="82" value="+ GetData&lt;T&gt;(): T" style="text;strokeColor=none;fillColor=none;align=left;verticalAlign=top;spacingLeft=4;spacingRight=4;overflow=hidden;rotatable=0;points=[[0,0.5],[1,0.5]];portConstraint=eastwest;" vertex="1" parent="79">
                    <mxGeometry y="112" width="160" height="26" as="geometry"/>
                </mxCell>
                <mxCell id="89" value="CorHandler&lt;T, K&gt;" style="swimlane;fontStyle=1;align=center;verticalAlign=top;childLayout=stackLayout;horizontal=1;startSize=26;horizontalStack=0;resizeParent=1;resizeParentMax=0;resizeLast=0;collapsible=1;marginBottom=0;rounded=0;shadow=0;glass=0;sketch=0;" vertex="1" parent="1">
                    <mxGeometry x="2377" y="-759" width="160" height="112" as="geometry"/>
                </mxCell>
                <mxCell id="93" value="# next: T" style="text;strokeColor=none;fillColor=none;align=left;verticalAlign=top;spacingLeft=4;spacingRight=4;overflow=hidden;rotatable=0;points=[[0,0.5],[1,0.5]];portConstraint=eastwest;" vertex="1" parent="89">
                    <mxGeometry y="26" width="160" height="26" as="geometry"/>
                </mxCell>
                <mxCell id="91" value="" style="line;strokeWidth=1;fillColor=none;align=left;verticalAlign=middle;spacingTop=-1;spacingLeft=3;spacingRight=3;rotatable=0;labelPosition=right;points=[];portConstraint=eastwest;" vertex="1" parent="89">
                    <mxGeometry y="52" width="160" height="8" as="geometry"/>
                </mxCell>
                <mxCell id="92" value="+ Next(K): string" style="text;strokeColor=none;fillColor=none;align=left;verticalAlign=top;spacingLeft=4;spacingRight=4;overflow=hidden;rotatable=0;points=[[0,0.5],[1,0.5]];portConstraint=eastwest;" vertex="1" parent="89">
                    <mxGeometry y="60" width="160" height="26" as="geometry"/>
                </mxCell>
                <mxCell id="95" style="edgeStyle=orthogonalEdgeStyle;rounded=0;orthogonalLoop=1;jettySize=auto;html=1;exitX=1;exitY=0.5;exitDx=0;exitDy=0;entryX=0.25;entryY=0;entryDx=0;entryDy=0;" edge="1" parent="89" source="94" target="89">
                    <mxGeometry relative="1" as="geometry"/>
                </mxCell>
                <mxCell id="94" value="+ Execute(K): string" style="text;strokeColor=none;fillColor=none;align=left;verticalAlign=top;spacingLeft=4;spacingRight=4;overflow=hidden;rotatable=0;points=[[0,0.5],[1,0.5]];portConstraint=eastwest;" vertex="1" parent="89">
                    <mxGeometry y="86" width="160" height="26" as="geometry"/>
                </mxCell>
                <mxCell id="96" value="DiscussionHandlerBase" style="swimlane;fontStyle=1;align=center;verticalAlign=top;childLayout=stackLayout;horizontal=1;startSize=26;horizontalStack=0;resizeParent=1;resizeParentMax=0;resizeLast=0;collapsible=1;marginBottom=0;rounded=0;shadow=0;glass=0;sketch=0;" vertex="1" parent="1">
                    <mxGeometry x="2323" y="-580" width="268" height="138" as="geometry"/>
                </mxCell>
                <mxCell id="97" value="- route: string" style="text;strokeColor=none;fillColor=none;align=left;verticalAlign=top;spacingLeft=4;spacingRight=4;overflow=hidden;rotatable=0;points=[[0,0.5],[1,0.5]];portConstraint=eastwest;" vertex="1" parent="96">
                    <mxGeometry y="26" width="268" height="26" as="geometry"/>
                </mxCell>
                <mxCell id="100" value="- parents: List&lt;string&gt;" style="text;strokeColor=none;fillColor=none;align=left;verticalAlign=top;spacingLeft=4;spacingRight=4;overflow=hidden;rotatable=0;points=[[0,0.5],[1,0.5]];portConstraint=eastwest;" vertex="1" parent="96">
                    <mxGeometry y="52" width="268" height="26" as="geometry"/>
                </mxCell>
                <mxCell id="98" value="" style="line;strokeWidth=1;fillColor=none;align=left;verticalAlign=middle;spacingTop=-1;spacingLeft=3;spacingRight=3;rotatable=0;labelPosition=right;points=[];portConstraint=eastwest;" vertex="1" parent="96">
                    <mxGeometry y="78" width="268" height="8" as="geometry"/>
                </mxCell>
                <mxCell id="99" value="+ Next(DiscussionSelector): string" style="text;strokeColor=none;fillColor=none;align=left;verticalAlign=top;spacingLeft=4;spacingRight=4;overflow=hidden;rotatable=0;points=[[0,0.5],[1,0.5]];portConstraint=eastwest;" vertex="1" parent="96">
                    <mxGeometry y="86" width="268" height="26" as="geometry"/>
                </mxCell>
                <mxCell id="102" value="+ ValidateDataEntry(DiscussionSelector): bool" style="text;strokeColor=none;fillColor=none;align=left;verticalAlign=top;spacingLeft=4;spacingRight=4;overflow=hidden;rotatable=0;points=[[0,0.5],[1,0.5]];portConstraint=eastwest;" vertex="1" parent="96">
                    <mxGeometry y="112" width="268" height="26" as="geometry"/>
                </mxCell>
                <mxCell id="122" value="1" style="endArrow=open;html=1;endSize=12;startArrow=diamondThin;startSize=14;startFill=0;edgeStyle=orthogonalEdgeStyle;align=left;verticalAlign=bottom;strokeWidth=1;exitX=0.236;exitY=-0.006;exitDx=0;exitDy=0;exitPerimeter=0;entryX=0.367;entryY=0.985;entryDx=0;entryDy=0;entryPerimeter=0;" edge="1" parent="1" source="57" target="76">
                    <mxGeometry x="-0.6509" relative="1" as="geometry">
                        <mxPoint x="1926" y="-388" as="sourcePoint"/>
                        <mxPoint x="2086" y="-388" as="targetPoint"/>
                        <mxPoint as="offset"/>
                    </mxGeometry>
                </mxCell>
                <mxCell id="133" value="" style="endArrow=open;endFill=1;endSize=12;html=1;strokeWidth=1;exitX=1;exitY=0.5;exitDx=0;exitDy=0;entryX=0;entryY=0.5;entryDx=0;entryDy=0;" edge="1" parent="1" source="85" target="83">
                    <mxGeometry width="160" relative="1" as="geometry">
                        <mxPoint x="2192" y="-218" as="sourcePoint"/>
                        <mxPoint x="2352" y="-218" as="targetPoint"/>
                    </mxGeometry>
                </mxCell>
                <mxCell id="134" value="CommandHandler" style="swimlane;fontStyle=1;align=center;verticalAlign=top;childLayout=stackLayout;horizontal=1;startSize=26;horizontalStack=0;resizeParent=1;resizeParentMax=0;resizeLast=0;collapsible=1;marginBottom=0;rounded=0;shadow=0;glass=0;sketch=0;" vertex="1" parent="1">
                    <mxGeometry x="2173.5" y="-237" width="212" height="60" as="geometry"/>
                </mxCell>
                <mxCell id="135" value="" style="line;strokeWidth=1;fillColor=none;align=left;verticalAlign=middle;spacingTop=-1;spacingLeft=3;spacingRight=3;rotatable=0;labelPosition=right;points=[];portConstraint=eastwest;" vertex="1" parent="134">
                    <mxGeometry y="26" width="212" height="8" as="geometry"/>
                </mxCell>
                <mxCell id="136" value="+ HandleMessage(Message): string" style="text;strokeColor=none;fillColor=none;align=left;verticalAlign=top;spacingLeft=4;spacingRight=4;overflow=hidden;rotatable=0;points=[[0,0.5],[1,0.5]];portConstraint=eastwest;" vertex="1" parent="134">
                    <mxGeometry y="34" width="212" height="26" as="geometry"/>
                </mxCell>
                <mxCell id="137" value="" style="endArrow=open;endFill=1;endSize=12;html=1;strokeWidth=1;exitX=0.5;exitY=0;exitDx=0;exitDy=0;entryX=0.499;entryY=0.993;entryDx=0;entryDy=0;entryPerimeter=0;" edge="1" parent="1" source="134" target="64">
                    <mxGeometry width="160" relative="1" as="geometry">
                        <mxPoint x="2123" y="-198" as="sourcePoint"/>
                        <mxPoint x="2283" y="-198" as="targetPoint"/>
                    </mxGeometry>
                </mxCell>
                <mxCell id="138" value="Use" style="endArrow=open;endSize=12;dashed=1;html=1;strokeWidth=1;exitX=1;exitY=0.25;exitDx=0;exitDy=0;entryX=0.517;entryY=0.973;entryDx=0;entryDy=0;entryPerimeter=0;" edge="1" parent="1" source="134" target="68">
                    <mxGeometry x="-0.7167" width="160" relative="1" as="geometry">
                        <mxPoint x="2415" y="-200" as="sourcePoint"/>
                        <mxPoint x="2575" y="-200" as="targetPoint"/>
                        <Array as="points">
                            <mxPoint x="2514" y="-222"/>
                        </Array>
                        <mxPoint as="offset"/>
                    </mxGeometry>
                </mxCell>
                <mxCell id="139" value="" style="endArrow=open;endFill=1;endSize=12;html=1;strokeWidth=1;exitX=0;exitY=0.25;exitDx=0;exitDy=0;" edge="1" parent="1" source="134" target="60">
                    <mxGeometry width="160" relative="1" as="geometry">
                        <mxPoint x="1936.22" y="-172.82" as="sourcePoint"/>
                        <mxPoint x="1936.0030000000004" y="-230.002" as="targetPoint"/>
                        <Array as="points">
                            <mxPoint x="1971" y="-222"/>
                        </Array>
                    </mxGeometry>
                </mxCell>
                <mxCell id="140" value="" style="endArrow=open;endFill=1;endSize=12;html=1;strokeWidth=1;exitX=0.5;exitY=0;exitDx=0;exitDy=0;entryX=0;entryY=0.5;entryDx=0;entryDy=0;" edge="1" parent="1" source="61" target="102">
                    <mxGeometry width="160" relative="1" as="geometry">
                        <mxPoint x="2574" y="-115" as="sourcePoint"/>
                        <mxPoint x="2734" y="-115" as="targetPoint"/>
                        <Array as="points">
                            <mxPoint x="2280" y="-455"/>
                        </Array>
                    </mxGeometry>
                </mxCell>
                <mxCell id="141" value="" style="endArrow=open;endFill=1;endSize=12;html=1;strokeWidth=1;exitX=0;exitY=0.5;exitDx=0;exitDy=0;entryX=0.75;entryY=0;entryDx=0;entryDy=0;" edge="1" parent="1" source="97" target="57">
                    <mxGeometry width="160" relative="1" as="geometry">
                        <mxPoint x="2109" y="-663" as="sourcePoint"/>
                        <mxPoint x="2269" y="-663" as="targetPoint"/>
                        <Array as="points">
                            <mxPoint x="2248" y="-541"/>
                            <mxPoint x="2248" y="-411"/>
                            <mxPoint x="2048" y="-411"/>
                        </Array>
                    </mxGeometry>
                </mxCell>
                <mxCell id="142" value="" style="endArrow=block;dashed=1;endFill=0;endSize=12;html=1;strokeWidth=1;exitX=0.5;exitY=0;exitDx=0;exitDy=0;" edge="1" parent="1" source="96" target="94">
                    <mxGeometry width="160" relative="1" as="geometry">
                        <mxPoint x="2812" y="-205" as="sourcePoint"/>
                        <mxPoint x="2972" y="-205" as="targetPoint"/>
                    </mxGeometry>
                </mxCell>
                <mxCell id="143" value="&amp;lt;&amp;lt;bind&amp;gt;&amp;gt;&lt;br style=&quot;font-size: 10px&quot;&gt;&amp;lt;DiscussionHandlerBase, DiscussionSelector&amp;gt;" style="text;html=1;strokeColor=none;fillColor=none;align=center;verticalAlign=middle;whiteSpace=wrap;rounded=0;fontSize=10;" vertex="1" parent="1">
                    <mxGeometry x="2450" y="-620" width="245" height="20" as="geometry"/>
                </mxCell>
                <mxCell id="146" value="" style="endArrow=block;dashed=1;endFill=0;endSize=12;html=1;strokeWidth=1;exitX=0;exitY=0.5;exitDx=0;exitDy=0;entryX=1;entryY=0.5;entryDx=0;entryDy=0;" edge="1" parent="1" source="107" target="99">
                    <mxGeometry width="160" relative="1" as="geometry">
                        <mxPoint x="2693" y="-308" as="sourcePoint"/>
                        <mxPoint x="2853" y="-308" as="targetPoint"/>
                    </mxGeometry>
                </mxCell>
                <mxCell id="147" value="UserAdmin" style="swimlane;fontStyle=1;childLayout=stackLayout;horizontal=1;startSize=26;fillColor=none;horizontalStack=0;resizeParent=1;resizeParentMax=0;resizeLast=0;collapsible=1;marginBottom=0;" vertex="1" parent="1">
                    <mxGeometry x="2719" y="261" width="180" height="52" as="geometry"/>
                </mxCell>
                <mxCell id="148" value="QualificationAdmin" style="swimlane;fontStyle=1;childLayout=stackLayout;horizontal=1;startSize=26;fillColor=none;horizontalStack=0;resizeParent=1;resizeParentMax=0;resizeLast=0;collapsible=1;marginBottom=0;" vertex="1" parent="1">
                    <mxGeometry x="2719" y="338" width="180" height="52" as="geometry"/>
                </mxCell>
                <mxCell id="149" value="EntrepreneurAdmin" style="swimlane;fontStyle=1;childLayout=stackLayout;horizontal=1;startSize=26;fillColor=none;horizontalStack=0;resizeParent=1;resizeParentMax=0;resizeLast=0;collapsible=1;marginBottom=0;" vertex="1" parent="1">
                    <mxGeometry x="2719" y="487" width="180" height="52" as="geometry">
                        <mxRectangle x="2275" y="464" width="140" height="26" as="alternateBounds"/>
                    </mxGeometry>
                </mxCell>
                <mxCell id="150" value="PublicationAdmin" style="swimlane;fontStyle=1;childLayout=stackLayout;horizontal=1;startSize=26;fillColor=none;horizontalStack=0;resizeParent=1;resizeParentMax=0;resizeLast=0;collapsible=1;marginBottom=0;" vertex="1" parent="1">
                    <mxGeometry x="2719" y="560" width="180" height="52" as="geometry">
                        <mxRectangle x="2275" y="464" width="140" height="26" as="alternateBounds"/>
                    </mxGeometry>
                </mxCell>
                <mxCell id="151" value="CompanyAdmin" style="swimlane;fontStyle=1;childLayout=stackLayout;horizontal=1;startSize=26;fillColor=none;horizontalStack=0;resizeParent=1;resizeParentMax=0;resizeLast=0;collapsible=1;marginBottom=0;" vertex="1" parent="1">
                    <mxGeometry x="2719" y="411" width="180" height="52" as="geometry"/>
                </mxCell>
                <mxCell id="152" value="MaterialCategoryAdmin" style="swimlane;fontStyle=1;childLayout=stackLayout;horizontal=1;startSize=26;fillColor=none;horizontalStack=0;resizeParent=1;resizeParentMax=0;resizeLast=0;collapsible=1;marginBottom=0;" vertex="1" parent="1">
                    <mxGeometry x="2719" y="627" width="180" height="52" as="geometry"/>
                </mxCell>
                <mxCell id="153" value="SaleAdmin" style="swimlane;fontStyle=1;childLayout=stackLayout;horizontal=1;startSize=26;fillColor=none;horizontalStack=0;resizeParent=1;resizeParentMax=0;resizeLast=0;collapsible=1;marginBottom=0;" vertex="1" parent="1">
                    <mxGeometry x="2719" y="697" width="180" height="52" as="geometry"/>
                </mxCell>
                <mxCell id="154" value="" style="ellipse;whiteSpace=wrap;html=1;aspect=fixed;fillColor=#FF6666;direction=south;" vertex="1" parent="1">
                    <mxGeometry x="2890" y="405" width="14" height="14" as="geometry"/>
                </mxCell>
                <mxCell id="155" value="" style="ellipse;whiteSpace=wrap;html=1;aspect=fixed;fillColor=#FF6666;direction=south;" vertex="1" parent="1">
                    <mxGeometry x="2890" y="481" width="14" height="14" as="geometry"/>
                </mxCell>
                <mxCell id="156" value="" style="ellipse;whiteSpace=wrap;html=1;aspect=fixed;fillColor=#B266FF;" vertex="1" parent="1">
                    <mxGeometry x="2890" y="554" width="14" height="14" as="geometry"/>
                </mxCell>
                <mxCell id="157" value="" style="ellipse;whiteSpace=wrap;html=1;aspect=fixed;fillColor=#B266FF;" vertex="1" parent="1">
                    <mxGeometry x="2888" y="691" width="14" height="14" as="geometry"/>
                </mxCell>
                <mxCell id="158" value="" style="ellipse;whiteSpace=wrap;html=1;aspect=fixed;fillColor=#66B2FF;" vertex="1" parent="1">
                    <mxGeometry x="2890" y="621" width="14" height="14" as="geometry"/>
                </mxCell>
                <mxCell id="159" value="InvitationAdmin" style="swimlane;fontStyle=1;childLayout=stackLayout;horizontal=1;startSize=26;fillColor=none;horizontalStack=0;resizeParent=1;resizeParentMax=0;resizeLast=0;collapsible=1;marginBottom=0;" vertex="1" parent="1">
                    <mxGeometry x="2719" y="767" width="180" height="52" as="geometry"/>
                </mxCell>
                <mxCell id="160" value="" style="ellipse;whiteSpace=wrap;html=1;aspect=fixed;fillColor=#B266FF;" vertex="1" parent="1">
                    <mxGeometry x="2890" y="332" width="14" height="14" as="geometry"/>
                </mxCell>
                <mxCell id="161" value="" style="ellipse;whiteSpace=wrap;html=1;aspect=fixed;fillColor=#66B2FF;" vertex="1" parent="1">
                    <mxGeometry x="2890" y="254" width="14" height="14" as="geometry"/>
                </mxCell>
                <mxCell id="162" value="" style="ellipse;whiteSpace=wrap;html=1;aspect=fixed;fillColor=#B3FF66;" vertex="1" parent="1">
                    <mxGeometry x="2377" y="-242" width="14" height="14" as="geometry"/>
                </mxCell>
                <mxCell id="163" value="" style="ellipse;whiteSpace=wrap;html=1;aspect=fixed;fillColor=#B3FF66;" vertex="1" parent="1">
                    <mxGeometry x="2580" y="-384" width="14" height="14" as="geometry"/>
                </mxCell>
                <mxCell id="164" value="" style="ellipse;whiteSpace=wrap;html=1;aspect=fixed;fillColor=#B3FF66;" vertex="1" parent="1">
                    <mxGeometry x="2379" y="-384" width="14" height="14" as="geometry"/>
                </mxCell>
                <mxCell id="165" value="" style="ellipse;whiteSpace=wrap;html=1;aspect=fixed;fillColor=#B3FF66;" vertex="1" parent="1">
                    <mxGeometry x="2115" y="-358" width="14" height="14" as="geometry"/>
                </mxCell>
                <mxCell id="166" value="" style="ellipse;whiteSpace=wrap;html=1;aspect=fixed;fillColor=#B3FF66;" vertex="1" parent="1">
                    <mxGeometry x="2006" y="-584" width="14" height="14" as="geometry"/>
                </mxCell>
                <mxCell id="167" value="" style="ellipse;whiteSpace=wrap;html=1;aspect=fixed;fillColor=#B3FF66;" vertex="1" parent="1">
                    <mxGeometry x="2210" y="-584" width="14" height="14" as="geometry"/>
                </mxCell>
                <mxCell id="168" value="" style="ellipse;whiteSpace=wrap;html=1;aspect=fixed;fillColor=#B3FF66;" vertex="1" parent="1">
                    <mxGeometry x="2580" y="-584" width="14" height="14" as="geometry"/>
                </mxCell>
                <mxCell id="169" value="" style="ellipse;whiteSpace=wrap;html=1;aspect=fixed;fillColor=#B3FF66;" vertex="1" parent="1">
                    <mxGeometry x="2528" y="-764" width="14" height="14" as="geometry"/>
                </mxCell>
                <mxCell id="175" value="" style="ellipse;whiteSpace=wrap;html=1;aspect=fixed;fillColor=#B3FF66;" vertex="1" parent="1">
                    <mxGeometry x="1590" y="-23" width="14" height="14" as="geometry"/>
                </mxCell>
                <mxCell id="176" value="" style="ellipse;whiteSpace=wrap;html=1;aspect=fixed;fillColor=#B3FF66;" vertex="1" parent="1">
                    <mxGeometry x="1911" y="146" width="14" height="14" as="geometry"/>
                </mxCell>
                <mxCell id="177" value="" style="ellipse;whiteSpace=wrap;html=1;aspect=fixed;fillColor=#B3FF66;" vertex="1" parent="1">
                    <mxGeometry x="1911" y="266" width="14" height="14" as="geometry"/>
                </mxCell>
                <mxCell id="178" value="" style="ellipse;whiteSpace=wrap;html=1;aspect=fixed;fillColor=#B3FF66;" vertex="1" parent="1">
                    <mxGeometry x="1909" y="403" width="14" height="14" as="geometry"/>
                </mxCell>
                <mxCell id="179" value="&lt;p style=&quot;margin: 0px ; margin-top: 4px ; text-align: center&quot;&gt;&lt;i&gt;&amp;lt;&amp;lt;Interface&amp;gt;&amp;gt;&lt;/i&gt;&lt;br&gt;&lt;b&gt;ISalesReport&amp;lt;T&amp;gt;&lt;/b&gt;&lt;/p&gt;&lt;hr size=&quot;1&quot;&gt;&lt;p style=&quot;margin: 0px ; margin-left: 4px&quot;&gt;+ Target: T&lt;/p&gt;&lt;p style=&quot;margin: 0px ; margin-left: 4px&quot;&gt;+ DateFrom: Date&lt;/p&gt;&lt;p style=&quot;margin: 0px ; margin-left: 4px&quot;&gt;+ DateUntil: Date&lt;/p&gt;&lt;p style=&quot;margin: 0px ; margin-left: 4px&quot;&gt;+ Sales: Sale[]&lt;/p&gt;&lt;hr size=&quot;1&quot;&gt;&lt;p style=&quot;margin: 0px ; margin-left: 4px&quot;&gt;+ GenerateReport(): string&lt;/p&gt;" style="verticalAlign=top;align=left;overflow=fill;fontSize=12;fontFamily=Helvetica;html=1;rounded=0;shadow=0;comic=0;labelBackgroundColor=none;strokeWidth=1" vertex="1" parent="1">
                    <mxGeometry x="3027" y="89" width="160" height="149" as="geometry"/>
                </mxCell>
                <mxCell id="180" value="ReportEntrepreneur" style="swimlane;fontStyle=1;childLayout=stackLayout;horizontal=1;startSize=26;fillColor=none;horizontalStack=0;resizeParent=1;resizeParentMax=0;resizeLast=0;collapsible=1;marginBottom=0;" vertex="1" parent="1">
                    <mxGeometry x="2788" y="89" width="110" height="52" as="geometry"/>
                </mxCell>
                <mxCell id="181" value="ReportCompany" style="swimlane;fontStyle=1;childLayout=stackLayout;horizontal=1;startSize=26;fillColor=none;horizontalStack=0;resizeParent=1;resizeParentMax=0;resizeLast=0;collapsible=1;marginBottom=0;" vertex="1" parent="1">
                    <mxGeometry x="2788" y="186" width="110" height="52" as="geometry"/>
                </mxCell>
                <mxCell id="182" value="" style="endArrow=block;dashed=1;endFill=0;endSize=12;html=1;exitX=1;exitY=0.5;exitDx=0;exitDy=0;entryX=0;entryY=0.5;entryDx=0;entryDy=0;" edge="1" parent="1" source="180" target="179">
                    <mxGeometry width="160" relative="1" as="geometry">
                        <mxPoint x="3218" y="296" as="sourcePoint"/>
                        <mxPoint x="3188" y="164" as="targetPoint"/>
                        <Array as="points">
                            <mxPoint x="2994" y="115"/>
                            <mxPoint x="2994" y="163"/>
                        </Array>
                    </mxGeometry>
                </mxCell>
                <mxCell id="183" value="" style="endArrow=block;dashed=1;endFill=0;endSize=12;html=1;exitX=1;exitY=0.5;exitDx=0;exitDy=0;entryX=0;entryY=0.5;entryDx=0;entryDy=0;" edge="1" parent="1" source="181" target="179">
                    <mxGeometry width="160" relative="1" as="geometry">
                        <mxPoint x="3198" y="296" as="sourcePoint"/>
                        <mxPoint x="3358" y="296" as="targetPoint"/>
                        <Array as="points">
                            <mxPoint x="2993" y="212"/>
                            <mxPoint x="2993" y="163"/>
                        </Array>
                    </mxGeometry>
                </mxCell>
                <mxCell id="184" value="&amp;lt;&amp;lt;bind&amp;gt;&amp;gt;&lt;br style=&quot;font-size: 10px;&quot;&gt;&amp;lt;Entrepreneur&amp;gt;" style="text;html=1;strokeColor=none;fillColor=none;align=center;verticalAlign=middle;whiteSpace=wrap;rounded=0;fontSize=10;" vertex="1" parent="1">
                    <mxGeometry x="2902" y="89" width="100" height="20" as="geometry"/>
                </mxCell>
                <mxCell id="185" value="&amp;lt;&amp;lt;bind&amp;gt;&amp;gt;&lt;br style=&quot;font-size: 10px;&quot;&gt;&amp;lt;Company&amp;gt;" style="text;html=1;strokeColor=none;fillColor=none;align=center;verticalAlign=middle;whiteSpace=wrap;rounded=0;fontSize=10;" vertex="1" parent="1">
                    <mxGeometry x="2902" y="218" width="100" height="20" as="geometry"/>
                </mxCell>
                <mxCell id="192" value="Use" style="endArrow=open;endSize=12;dashed=1;html=1;strokeWidth=1;entryX=0.5;entryY=0;entryDx=0;entryDy=0;" edge="1" parent="1" source="108" target="191">
                    <mxGeometry x="-0.7697" width="160" relative="1" as="geometry">
                        <mxPoint x="3060" y="-165" as="sourcePoint"/>
                        <mxPoint x="3220" y="-165" as="targetPoint"/>
                        <Array as="points">
                            <mxPoint x="2794" y="-322"/>
                            <mxPoint x="2809" y="-322"/>
                        </Array>
                        <mxPoint as="offset"/>
                    </mxGeometry>
                </mxCell>
                <mxCell id="119" value="" style="group" vertex="1" connectable="0" parent="1">
                    <mxGeometry x="2660" y="-528" width="276" height="86" as="geometry"/>
                </mxCell>
                <mxCell id="103" value="DiscussionHandlerConcrete" style="swimlane;fontStyle=1;align=center;verticalAlign=top;childLayout=stackLayout;horizontal=1;startSize=26;horizontalStack=0;resizeParent=1;resizeParentMax=0;resizeLast=0;collapsible=1;marginBottom=0;rounded=0;shadow=0;glass=0;sketch=0;" vertex="1" parent="119">
                    <mxGeometry width="268" height="86" as="geometry"/>
                </mxCell>
                <mxCell id="106" value="" style="line;strokeWidth=1;fillColor=none;align=left;verticalAlign=middle;spacingTop=-1;spacingLeft=3;spacingRight=3;rotatable=0;labelPosition=right;points=[];portConstraint=eastwest;" vertex="1" parent="103">
                    <mxGeometry y="26" width="268" height="8" as="geometry"/>
                </mxCell>
                <mxCell id="107" value="+ Execute(DiscussionSelector): string" style="text;strokeColor=none;fillColor=none;align=left;verticalAlign=top;spacingLeft=4;spacingRight=4;overflow=hidden;rotatable=0;points=[[0,0.5],[1,0.5]];portConstraint=eastwest;" vertex="1" parent="103">
                    <mxGeometry y="34" width="268" height="26" as="geometry"/>
                </mxCell>
                <mxCell id="108" value="+ ValidateDataEntry(DiscussionSelector): bool" style="text;strokeColor=none;fillColor=none;align=left;verticalAlign=top;spacingLeft=4;spacingRight=4;overflow=hidden;rotatable=0;points=[[0,0.5],[1,0.5]];portConstraint=eastwest;" vertex="1" parent="103">
                    <mxGeometry y="60" width="268" height="26" as="geometry"/>
                </mxCell>
                <mxCell id="113" value="" style="endArrow=none;html=1;edgeStyle=orthogonalEdgeStyle;exitX=0.021;exitY=0.978;exitDx=0;exitDy=0;exitPerimeter=0;strokeWidth=1;rounded=0;" edge="1" parent="103" source="108" target="103">
                    <mxGeometry relative="1" as="geometry">
                        <mxPoint x="97" y="174" as="sourcePoint"/>
                        <mxPoint x="268" y="7" as="targetPoint"/>
                        <Array as="points">
                            <mxPoint x="6" y="92"/>
                            <mxPoint x="276" y="92"/>
                            <mxPoint x="276" y="7"/>
                        </Array>
                    </mxGeometry>
                </mxCell>
                <mxCell id="116" value="" style="line;strokeWidth=1;fillColor=none;align=left;verticalAlign=middle;spacingTop=-1;spacingLeft=3;spacingRight=3;rotatable=0;labelPosition=right;points=[];portConstraint=eastwest;rounded=0;shadow=0;glass=0;sketch=0;" vertex="1" parent="119">
                    <mxGeometry x="268" y="33" width="8" height="8" as="geometry"/>
                </mxCell>
                <mxCell id="117" value="" style="line;strokeWidth=1;fillColor=none;align=left;verticalAlign=middle;spacingTop=-1;spacingLeft=3;spacingRight=3;rotatable=0;labelPosition=right;points=[];portConstraint=eastwest;rounded=0;shadow=0;glass=0;sketch=0;" vertex="1" parent="119">
                    <mxGeometry x="268" y="37" width="8" height="8" as="geometry"/>
                </mxCell>
                <mxCell id="172" value="" style="ellipse;whiteSpace=wrap;html=1;aspect=fixed;fillColor=#B266FF;" vertex="1" parent="119">
                    <mxGeometry x="258" y="14" width="14" height="14" as="geometry"/>
                </mxCell>
                <mxCell id="173" value="" style="ellipse;whiteSpace=wrap;html=1;aspect=fixed;fillColor=#66B2FF;" vertex="1" parent="119">
                    <mxGeometry x="258" y="33" width="14" height="14" as="geometry"/>
                </mxCell>
                <mxCell id="174" value="" style="ellipse;whiteSpace=wrap;html=1;aspect=fixed;fillColor=#FF6666;" vertex="1" parent="119">
                    <mxGeometry x="258" y="50" width="14" height="14" as="geometry"/>
                </mxCell>
                <mxCell id="170" value="" style="ellipse;whiteSpace=wrap;html=1;aspect=fixed;fillColor=#B3FF66;" vertex="1" parent="119">
                    <mxGeometry x="258" y="-3" width="14" height="14" as="geometry"/>
                </mxCell>
                <mxCell id="193" value="1" style="endArrow=open;html=1;endSize=12;startArrow=diamondThin;startSize=14;startFill=0;edgeStyle=orthogonalEdgeStyle;align=left;verticalAlign=bottom;exitX=0.75;exitY=0;exitDx=0;exitDy=0;entryX=0.694;entryY=0.989;entryDx=0;entryDy=0;entryPerimeter=0;" edge="1" parent="1" source="206" target="203">
                    <mxGeometry x="-0.8153" relative="1" as="geometry">
                        <mxPoint x="2803" y="889" as="sourcePoint"/>
                        <mxPoint x="3624" y="-17" as="targetPoint"/>
                        <Array as="points">
                            <mxPoint x="3433" y="37"/>
                            <mxPoint x="3509" y="37"/>
                        </Array>
                        <mxPoint as="offset"/>
                    </mxGeometry>
                </mxCell>
                <mxCell id="194" value="" style="endArrow=open;endFill=1;endSize=12;html=1;exitX=0.25;exitY=0;exitDx=0;exitDy=0;" edge="1" parent="1" source="206" target="198">
                    <mxGeometry x="3433" y="155" width="160" as="geometry">
                        <mxPoint x="4513" y="186" as="sourcePoint"/>
                        <mxPoint x="3261" y="37" as="targetPoint"/>
                        <Array as="points"/>
                    </mxGeometry>
                </mxCell>
                <mxCell id="195" value="" style="group" vertex="1" connectable="0" parent="1">
                    <mxGeometry x="3253" y="-75" width="127" height="84" as="geometry"/>
                </mxCell>
                <mxCell id="196" value="Role" style="swimlane;fontStyle=1;childLayout=stackLayout;horizontal=1;startSize=26;fillColor=none;horizontalStack=0;resizeParent=1;resizeParentMax=0;resizeLast=0;collapsible=1;marginBottom=0;swimlaneLine=1;glass=0;shadow=0;rounded=0;sketch=0;swimlaneFillColor=none;" vertex="1" parent="195">
                    <mxGeometry y="6" width="120" height="78" as="geometry"/>
                </mxCell>
                <mxCell id="197" value="+ Name: string" style="text;strokeColor=none;fillColor=none;align=left;verticalAlign=top;spacingLeft=4;spacingRight=4;overflow=hidden;rotatable=0;points=[[0,0.5],[1,0.5]];portConstraint=eastwest;" vertex="1" parent="196">
                    <mxGeometry y="26" width="120" height="26" as="geometry"/>
                </mxCell>
                <mxCell id="198" value="+ Id: string" style="text;strokeColor=none;fillColor=none;align=left;verticalAlign=top;spacingLeft=4;spacingRight=4;overflow=hidden;rotatable=0;points=[[0,0.5],[1,0.5]];portConstraint=eastwest;" vertex="1" parent="196">
                    <mxGeometry y="52" width="120" height="26" as="geometry"/>
                </mxCell>
                <mxCell id="199" value="" style="ellipse;whiteSpace=wrap;html=1;aspect=fixed;fillColor=#FF6666;direction=south;shadow=0;sketch=0;" vertex="1" parent="195">
                    <mxGeometry x="113" width="14" height="14" as="geometry"/>
                </mxCell>
                <mxCell id="205" value="" style="group" vertex="1" connectable="0" parent="1">
                    <mxGeometry x="3253" y="66" width="247" height="172" as="geometry"/>
                </mxCell>
                <mxCell id="206" value="User" style="swimlane;fontStyle=1;childLayout=stackLayout;horizontal=1;startSize=26;fillColor=none;horizontalStack=0;resizeParent=1;resizeParentMax=0;resizeLast=0;collapsible=1;marginBottom=0;" vertex="1" parent="205">
                    <mxGeometry y="8" width="240" height="164" as="geometry"/>
                </mxCell>
                <mxCell id="207" value="+ Id: int" style="text;strokeColor=none;fillColor=none;align=left;verticalAlign=top;spacingLeft=4;spacingRight=4;overflow=hidden;rotatable=0;points=[[0,0.5],[1,0.5]];portConstraint=eastwest;" vertex="1" parent="206">
                    <mxGeometry y="26" width="240" height="26" as="geometry"/>
                </mxCell>
                <mxCell id="208" value="+ Name: string" style="text;strokeColor=none;fillColor=none;align=left;verticalAlign=top;spacingLeft=4;spacingRight=4;overflow=hidden;rotatable=0;points=[[0,0.5],[1,0.5]];portConstraint=eastwest;" vertex="1" parent="206">
                    <mxGeometry y="52" width="240" height="26" as="geometry"/>
                </mxCell>
                <mxCell id="209" value="+ Deleted: bool" style="text;strokeColor=none;fillColor=none;align=left;verticalAlign=top;spacingLeft=4;spacingRight=4;overflow=hidden;rotatable=0;points=[[0,0.5],[1,0.5]];portConstraint=eastwest;" vertex="1" parent="206">
                    <mxGeometry y="78" width="240" height="26" as="geometry"/>
                </mxCell>
                <mxCell id="210" value="" style="line;strokeWidth=1;fillColor=none;align=left;verticalAlign=middle;spacingTop=-1;spacingLeft=3;spacingRight=3;rotatable=0;labelPosition=right;points=[];portConstraint=eastwest;" vertex="1" parent="206">
                    <mxGeometry y="104" width="240" height="8" as="geometry"/>
                </mxCell>
                <mxCell id="211" value="+ AddAccount(MesageService, string): void" style="text;strokeColor=none;fillColor=none;align=left;verticalAlign=top;spacingLeft=4;spacingRight=4;overflow=hidden;rotatable=0;points=[[0,0.5],[1,0.5]];portConstraint=eastwest;" vertex="1" parent="206">
                    <mxGeometry y="112" width="240" height="26" as="geometry"/>
                </mxCell>
                <mxCell id="212" value="+ RemoveAccount(MessageService): void" style="text;strokeColor=none;fillColor=none;align=left;verticalAlign=top;spacingLeft=4;spacingRight=4;overflow=hidden;rotatable=0;points=[[0,0.5],[1,0.5]];portConstraint=eastwest;" vertex="1" parent="206">
                    <mxGeometry y="138" width="240" height="26" as="geometry"/>
                </mxCell>
                <mxCell id="213" value="" style="ellipse;whiteSpace=wrap;html=1;aspect=fixed;fillColor=#66B2FF;" vertex="1" parent="205">
                    <mxGeometry x="233" width="14" height="14" as="geometry"/>
                </mxCell>
                <mxCell id="219" value="" style="group" vertex="1" connectable="0" parent="1">
                    <mxGeometry x="3523" y="150" width="184" height="91" as="geometry"/>
                </mxCell>
                <mxCell id="214" value="MaterialCategory" style="swimlane;fontStyle=1;childLayout=stackLayout;horizontal=1;startSize=26;fillColor=none;horizontalStack=0;resizeParent=1;resizeParentMax=0;resizeLast=0;collapsible=1;marginBottom=0;" vertex="1" parent="219">
                    <mxGeometry y="5" width="180" height="86" as="geometry"/>
                </mxCell>
                <mxCell id="215" value="+ Id: int" style="text;strokeColor=none;fillColor=none;align=left;verticalAlign=top;spacingLeft=4;spacingRight=4;overflow=hidden;rotatable=0;points=[[0,0.5],[1,0.5]];portConstraint=eastwest;" vertex="1" parent="214">
                    <mxGeometry y="26" width="180" height="26" as="geometry"/>
                </mxCell>
                <mxCell id="216" value="+ Name: string" style="text;strokeColor=none;fillColor=none;align=left;verticalAlign=top;spacingLeft=4;spacingRight=4;overflow=hidden;rotatable=0;points=[[0,0.5],[1,0.5]];portConstraint=eastwest;" vertex="1" parent="214">
                    <mxGeometry y="52" width="180" height="26" as="geometry"/>
                </mxCell>
                <mxCell id="217" value="" style="line;strokeWidth=1;fillColor=none;align=left;verticalAlign=middle;spacingTop=-1;spacingLeft=3;spacingRight=3;rotatable=0;labelPosition=right;points=[];portConstraint=eastwest;" vertex="1" parent="214">
                    <mxGeometry y="78" width="180" height="8" as="geometry"/>
                </mxCell>
                <mxCell id="218" value="" style="ellipse;whiteSpace=wrap;html=1;aspect=fixed;fillColor=#66B2FF;" vertex="1" parent="219">
                    <mxGeometry x="170" width="14" height="14" as="geometry"/>
                </mxCell>
                <mxCell id="220" value="Entrepreneur" style="swimlane;fontStyle=1;childLayout=stackLayout;horizontal=1;startSize=26;fillColor=none;horizontalStack=0;resizeParent=1;resizeParentMax=0;resizeLast=0;collapsible=1;marginBottom=0;" vertex="1" parent="1">
                    <mxGeometry x="3755" y="51" width="240" height="190" as="geometry"/>
                </mxCell>
                <mxCell id="221" value="+ Id: int" style="text;strokeColor=none;fillColor=none;align=left;verticalAlign=top;spacingLeft=4;spacingRight=4;overflow=hidden;rotatable=0;points=[[0,0.5],[1,0.5]];portConstraint=eastwest;" vertex="1" parent="220">
                    <mxGeometry y="26" width="240" height="26" as="geometry"/>
                </mxCell>
                <mxCell id="222" value="+ Name: string" style="text;strokeColor=none;fillColor=none;align=left;verticalAlign=top;spacingLeft=4;spacingRight=4;overflow=hidden;rotatable=0;points=[[0,0.5],[1,0.5]];portConstraint=eastwest;" vertex="1" parent="220">
                    <mxGeometry y="52" width="240" height="26" as="geometry"/>
                </mxCell>
                <mxCell id="223" value="+ Trade: string" style="text;strokeColor=none;fillColor=none;align=left;verticalAlign=top;spacingLeft=4;spacingRight=4;overflow=hidden;rotatable=0;points=[[0,0.5],[1,0.5]];portConstraint=eastwest;" vertex="1" parent="220">
                    <mxGeometry y="78" width="240" height="26" as="geometry"/>
                </mxCell>
                <mxCell id="225" value="+ Deleted: bool" style="text;strokeColor=none;fillColor=none;align=left;verticalAlign=top;spacingLeft=4;spacingRight=4;overflow=hidden;rotatable=0;points=[[0,0.5],[1,0.5]];portConstraint=eastwest;" vertex="1" parent="220">
                    <mxGeometry y="104" width="240" height="26" as="geometry"/>
                </mxCell>
                <mxCell id="226" value="" style="line;strokeWidth=1;fillColor=none;align=left;verticalAlign=middle;spacingTop=-1;spacingLeft=3;spacingRight=3;rotatable=0;labelPosition=right;points=[];portConstraint=eastwest;" vertex="1" parent="220">
                    <mxGeometry y="130" width="240" height="8" as="geometry"/>
                </mxCell>
                <mxCell id="227" value="+ AddQualification(Qualification): void" style="text;strokeColor=none;fillColor=none;align=left;verticalAlign=top;spacingLeft=4;spacingRight=4;overflow=hidden;rotatable=0;points=[[0,0.5],[1,0.5]];portConstraint=eastwest;" vertex="1" parent="220">
                    <mxGeometry y="138" width="240" height="26" as="geometry"/>
                </mxCell>
                <mxCell id="228" value="+ RemoveQualification(Qualification): void" style="text;strokeColor=none;fillColor=none;align=left;verticalAlign=top;spacingLeft=4;spacingRight=4;overflow=hidden;rotatable=0;points=[[0,0.5],[1,0.5]];portConstraint=eastwest;" vertex="1" parent="220">
                    <mxGeometry y="164" width="240" height="26" as="geometry"/>
                </mxCell>
                <mxCell id="229" value="" style="ellipse;whiteSpace=wrap;html=1;aspect=fixed;fillColor=#FF6666;" vertex="1" parent="1">
                    <mxGeometry x="3985" y="45" width="14" height="14" as="geometry"/>
                </mxCell>
                <mxCell id="234" value="Location" style="swimlane;fontStyle=1;childLayout=stackLayout;horizontal=1;startSize=26;fillColor=none;horizontalStack=0;resizeParent=1;resizeParentMax=0;resizeLast=0;collapsible=1;marginBottom=0;" vertex="1" parent="1">
                    <mxGeometry x="4641" y="286" width="180" height="60" as="geometry"/>
                </mxCell>
                <mxCell id="235" value="+ GeoReference: string" style="text;strokeColor=none;fillColor=none;align=left;verticalAlign=top;spacingLeft=4;spacingRight=4;overflow=hidden;rotatable=0;points=[[0,0.5],[1,0.5]];portConstraint=eastwest;" vertex="1" parent="234">
                    <mxGeometry y="26" width="180" height="26" as="geometry"/>
                </mxCell>
                <mxCell id="236" value="" style="line;strokeWidth=1;fillColor=none;align=left;verticalAlign=middle;spacingTop=-1;spacingLeft=3;spacingRight=3;rotatable=0;labelPosition=right;points=[];portConstraint=eastwest;" vertex="1" parent="234">
                    <mxGeometry y="52" width="180" height="8" as="geometry"/>
                </mxCell>
                <mxCell id="237" value="" style="ellipse;whiteSpace=wrap;html=1;aspect=fixed;fillColor=#FF6666;" vertex="1" parent="1">
                    <mxGeometry x="4812" y="281" width="14" height="14" as="geometry"/>
                </mxCell>
                <mxCell id="238" value="Company" style="swimlane;fontStyle=1;childLayout=stackLayout;horizontal=1;startSize=26;fillColor=none;horizontalStack=0;resizeParent=1;resizeParentMax=0;resizeLast=0;collapsible=1;marginBottom=0;" vertex="1" parent="1">
                    <mxGeometry x="4041" y="-1" width="280" height="242" as="geometry"/>
                </mxCell>
                <mxCell id="239" value="+ Id: int" style="text;strokeColor=none;fillColor=none;align=left;verticalAlign=top;spacingLeft=4;spacingRight=4;overflow=hidden;rotatable=0;points=[[0,0.5],[1,0.5]];portConstraint=eastwest;" vertex="1" parent="238">
                    <mxGeometry y="26" width="280" height="26" as="geometry"/>
                </mxCell>
                <mxCell id="240" value="+ Name: string" style="text;strokeColor=none;fillColor=none;align=left;verticalAlign=top;spacingLeft=4;spacingRight=4;overflow=hidden;rotatable=0;points=[[0,0.5],[1,0.5]];portConstraint=eastwest;" vertex="1" parent="238">
                    <mxGeometry y="52" width="280" height="26" as="geometry"/>
                </mxCell>
                <mxCell id="241" value="+ Trade: string" style="text;strokeColor=none;fillColor=none;align=left;verticalAlign=top;spacingLeft=4;spacingRight=4;overflow=hidden;rotatable=0;points=[[0,0.5],[1,0.5]];portConstraint=eastwest;" vertex="1" parent="238">
                    <mxGeometry y="78" width="280" height="26" as="geometry"/>
                </mxCell>
                <mxCell id="242" value="+ Deleted: bool" style="text;strokeColor=none;fillColor=none;align=left;verticalAlign=top;spacingLeft=4;spacingRight=4;overflow=hidden;rotatable=0;points=[[0,0.5],[1,0.5]];portConstraint=eastwest;" vertex="1" parent="238">
                    <mxGeometry y="104" width="280" height="26" as="geometry"/>
                </mxCell>
                <mxCell id="243" value="" style="line;strokeWidth=1;fillColor=none;align=left;verticalAlign=middle;spacingTop=-1;spacingLeft=3;spacingRight=3;rotatable=0;labelPosition=right;points=[];portConstraint=eastwest;" vertex="1" parent="238">
                    <mxGeometry y="130" width="280" height="8" as="geometry"/>
                </mxCell>
                <mxCell id="244" value="+ AddLocation(Location): void" style="text;strokeColor=none;fillColor=none;align=left;verticalAlign=top;spacingLeft=4;spacingRight=4;overflow=hidden;rotatable=0;points=[[0,0.5],[1,0.5]];portConstraint=eastwest;" vertex="1" parent="238">
                    <mxGeometry y="138" width="280" height="26" as="geometry"/>
                </mxCell>
                <mxCell id="245" value="+ RemoveLocation(Location): void" style="text;strokeColor=none;fillColor=none;align=left;verticalAlign=top;spacingLeft=4;spacingRight=4;overflow=hidden;rotatable=0;points=[[0,0.5],[1,0.5]];portConstraint=eastwest;" vertex="1" parent="238">
                    <mxGeometry y="164" width="280" height="26" as="geometry"/>
                </mxCell>
                <mxCell id="246" value="+ AddAdminUser(User): void" style="text;strokeColor=none;fillColor=none;align=left;verticalAlign=top;spacingLeft=4;spacingRight=4;overflow=hidden;rotatable=0;points=[[0,0.5],[1,0.5]];portConstraint=eastwest;" vertex="1" parent="238">
                    <mxGeometry y="190" width="280" height="26" as="geometry"/>
                </mxCell>
                <mxCell id="247" value="+ RemoveAdminUser(User): void" style="text;strokeColor=none;fillColor=none;align=left;verticalAlign=top;spacingLeft=4;spacingRight=4;overflow=hidden;rotatable=0;points=[[0,0.5],[1,0.5]];portConstraint=eastwest;" vertex="1" parent="238">
                    <mxGeometry y="216" width="280" height="26" as="geometry"/>
                </mxCell>
                <mxCell id="248" value="" style="ellipse;whiteSpace=wrap;html=1;aspect=fixed;fillColor=#FF6666;direction=south;" vertex="1" parent="1">
                    <mxGeometry x="4311" y="-4" width="14" height="14" as="geometry"/>
                </mxCell>
                <mxCell id="250" value="" style="endArrow=open;endFill=1;endSize=12;html=1;strokeWidth=1;entryX=1;entryY=0.5;entryDx=0;entryDy=0;exitX=0;exitY=0.5;exitDx=0;exitDy=0;" edge="1" parent="1" source="222" target="208">
                    <mxGeometry width="160" relative="1" as="geometry">
                        <mxPoint x="3569" y="103" as="sourcePoint"/>
                        <mxPoint x="3729" y="103" as="targetPoint"/>
                        <Array as="points">
                            <mxPoint x="3623" y="116"/>
                            <mxPoint x="3623" y="139"/>
                        </Array>
                    </mxGeometry>
                </mxCell>
                <mxCell id="252" value="1" style="endArrow=open;html=1;endSize=12;startArrow=diamondThin;startSize=14;startFill=0;edgeStyle=orthogonalEdgeStyle;align=left;verticalAlign=bottom;strokeWidth=1;exitX=0;exitY=0.5;exitDx=0;exitDy=0;entryX=1;entryY=0.5;entryDx=0;entryDy=0;" edge="1" parent="1" source="239" target="207">
                    <mxGeometry x="-0.9133" relative="1" as="geometry">
                        <mxPoint x="3823" y="-56" as="sourcePoint"/>
                        <mxPoint x="3983" y="-56" as="targetPoint"/>
                        <Array as="points">
                            <mxPoint x="3573" y="38"/>
                            <mxPoint x="3573" y="113"/>
                        </Array>
                        <mxPoint as="offset"/>
                    </mxGeometry>
                </mxCell>
                <mxCell id="253" value="CompanyMaterial" style="swimlane;fontStyle=1;childLayout=stackLayout;horizontal=1;startSize=26;fillColor=none;horizontalStack=0;resizeParent=1;resizeParentMax=0;resizeLast=0;collapsible=1;marginBottom=0;" vertex="1" parent="1">
                    <mxGeometry x="4043" y="288" width="280" height="294" as="geometry"/>
                </mxCell>
                <mxCell id="254" value="+ Id: int" style="text;strokeColor=none;fillColor=none;align=left;verticalAlign=top;spacingLeft=4;spacingRight=4;overflow=hidden;rotatable=0;points=[[0,0.5],[1,0.5]];portConstraint=eastwest;" vertex="1" parent="253">
                    <mxGeometry y="26" width="280" height="26" as="geometry"/>
                </mxCell>
                <mxCell id="255" value="+ Name: string" style="text;strokeColor=none;fillColor=none;align=left;verticalAlign=top;spacingLeft=4;spacingRight=4;overflow=hidden;rotatable=0;points=[[0,0.5],[1,0.5]];portConstraint=eastwest;" vertex="1" parent="253">
                    <mxGeometry y="52" width="280" height="26" as="geometry"/>
                </mxCell>
                <mxCell id="256" value="+ LastRestock: Date" style="text;strokeColor=none;fillColor=none;align=left;verticalAlign=top;spacingLeft=4;spacingRight=4;overflow=hidden;rotatable=0;points=[[0,0.5],[1,0.5]];portConstraint=eastwest;" vertex="1" parent="253">
                    <mxGeometry y="78" width="280" height="26" as="geometry"/>
                </mxCell>
                <mxCell id="257" value="+ DaysBetweenRestocks: int" style="text;strokeColor=none;fillColor=none;align=left;verticalAlign=top;spacingLeft=4;spacingRight=4;overflow=hidden;rotatable=0;points=[[0,0.5],[1,0.5]];portConstraint=eastwest;" vertex="1" parent="253">
                    <mxGeometry y="104" width="280" height="26" as="geometry"/>
                </mxCell>
                <mxCell id="258" value="+ Deleted: bool" style="text;strokeColor=none;fillColor=none;align=left;verticalAlign=top;spacingLeft=4;spacingRight=4;overflow=hidden;rotatable=0;points=[[0,0.5],[1,0.5]];portConstraint=eastwest;" vertex="1" parent="253">
                    <mxGeometry y="130" width="280" height="26" as="geometry"/>
                </mxCell>
                <mxCell id="259" value="" style="line;strokeWidth=1;fillColor=none;align=left;verticalAlign=middle;spacingTop=-1;spacingLeft=3;spacingRight=3;rotatable=0;labelPosition=right;points=[];portConstraint=eastwest;" vertex="1" parent="253">
                    <mxGeometry y="156" width="280" height="8" as="geometry"/>
                </mxCell>
                <mxCell id="260" value="+ AddQualification(Qualification): void" style="text;strokeColor=none;fillColor=none;align=left;verticalAlign=top;spacingLeft=4;spacingRight=4;overflow=hidden;rotatable=0;points=[[0,0.5],[1,0.5]];portConstraint=eastwest;" vertex="1" parent="253">
                    <mxGeometry y="164" width="280" height="26" as="geometry"/>
                </mxCell>
                <mxCell id="261" value="+ RemoveQualification(Qualification): void" style="text;strokeColor=none;fillColor=none;align=left;verticalAlign=top;spacingLeft=4;spacingRight=4;overflow=hidden;rotatable=0;points=[[0,0.5],[1,0.5]];portConstraint=eastwest;" vertex="1" parent="253">
                    <mxGeometry y="190" width="280" height="26" as="geometry"/>
                </mxCell>
                <mxCell id="262" value="+ GetStockForLocation(Location): int" style="text;strokeColor=none;fillColor=none;align=left;verticalAlign=top;spacingLeft=4;spacingRight=4;overflow=hidden;rotatable=0;points=[[0,0.5],[1,0.5]];portConstraint=eastwest;" vertex="1" parent="253">
                    <mxGeometry y="216" width="280" height="26" as="geometry"/>
                </mxCell>
                <mxCell id="263" value="+ GetStockTotal(): int" style="text;strokeColor=none;fillColor=none;align=left;verticalAlign=top;spacingLeft=4;spacingRight=4;overflow=hidden;rotatable=0;points=[[0,0.5],[1,0.5]];portConstraint=eastwest;" vertex="1" parent="253">
                    <mxGeometry y="242" width="280" height="26" as="geometry"/>
                </mxCell>
                <mxCell id="264" value="+ RestockLocation(Location, int): void" style="text;strokeColor=none;fillColor=none;align=left;verticalAlign=top;spacingLeft=4;spacingRight=4;overflow=hidden;rotatable=0;points=[[0,0.5],[1,0.5]];portConstraint=eastwest;" vertex="1" parent="253">
                    <mxGeometry y="268" width="280" height="26" as="geometry"/>
                </mxCell>
                <mxCell id="265" value="" style="ellipse;whiteSpace=wrap;html=1;aspect=fixed;fillColor=#66B2FF;" vertex="1" parent="1">
                    <mxGeometry x="4314" y="283" width="14" height="14" as="geometry"/>
                </mxCell>
                <mxCell id="266" value="CompanyStock" style="swimlane;fontStyle=1;childLayout=stackLayout;horizontal=1;startSize=26;fillColor=none;horizontalStack=0;resizeParent=1;resizeParentMax=0;resizeLast=0;collapsible=1;marginBottom=0;" vertex="1" parent="1">
                    <mxGeometry x="4394" y="286" width="180" height="60" as="geometry"/>
                </mxCell>
                <mxCell id="267" value="+ Stock: int" style="text;strokeColor=none;fillColor=none;align=left;verticalAlign=top;spacingLeft=4;spacingRight=4;overflow=hidden;rotatable=0;points=[[0,0.5],[1,0.5]];portConstraint=eastwest;" vertex="1" parent="266">
                    <mxGeometry y="26" width="180" height="26" as="geometry"/>
                </mxCell>
                <mxCell id="268" value="" style="line;strokeWidth=1;fillColor=none;align=left;verticalAlign=middle;spacingTop=-1;spacingLeft=3;spacingRight=3;rotatable=0;labelPosition=right;points=[];portConstraint=eastwest;" vertex="1" parent="266">
                    <mxGeometry y="52" width="180" height="8" as="geometry"/>
                </mxCell>
                <mxCell id="269" value="" style="ellipse;whiteSpace=wrap;html=1;aspect=fixed;fillColor=#66B2FF;" vertex="1" parent="1">
                    <mxGeometry x="4565" y="280" width="14" height="14" as="geometry"/>
                </mxCell>
                <mxCell id="271" value="" style="endArrow=open;endFill=1;endSize=12;html=1;strokeWidth=1;exitX=1;exitY=0.25;exitDx=0;exitDy=0;entryX=0;entryY=0.25;entryDx=0;entryDy=0;" edge="1" parent="1" source="266" target="234">
                    <mxGeometry width="160" relative="1" as="geometry">
                        <mxPoint x="4648" y="444" as="sourcePoint"/>
                        <mxPoint x="4808" y="444" as="targetPoint"/>
                    </mxGeometry>
                </mxCell>
                <mxCell id="272" value="1" style="endArrow=open;html=1;endSize=12;startArrow=diamondThin;startSize=14;startFill=0;edgeStyle=orthogonalEdgeStyle;align=left;verticalAlign=bottom;strokeWidth=1;exitX=1;exitY=0.5;exitDx=0;exitDy=0;entryX=0.25;entryY=0;entryDx=0;entryDy=0;" edge="1" parent="1" source="246" target="234">
                    <mxGeometry x="-0.9332" relative="1" as="geometry">
                        <mxPoint x="4499" y="83" as="sourcePoint"/>
                        <mxPoint x="4659" y="83" as="targetPoint"/>
                        <mxPoint as="offset"/>
                    </mxGeometry>
                </mxCell>
                <mxCell id="273" value="" style="endArrow=open;endFill=1;endSize=12;html=1;strokeWidth=1;exitX=0.75;exitY=0;exitDx=0;exitDy=0;entryX=0.5;entryY=0;entryDx=0;entryDy=0;" edge="1" parent="1" source="220" target="234">
                    <mxGeometry width="160" relative="1" as="geometry">
                        <mxPoint x="3844" y="-64" as="sourcePoint"/>
                        <mxPoint x="4597" y="-34" as="targetPoint"/>
                        <Array as="points">
                            <mxPoint x="3935" y="-34"/>
                            <mxPoint x="4731" y="-34"/>
                        </Array>
                    </mxGeometry>
                </mxCell>
                <mxCell id="274" value="1" style="endArrow=open;html=1;endSize=12;startArrow=diamondThin;startSize=14;startFill=0;edgeStyle=orthogonalEdgeStyle;align=left;verticalAlign=bottom;strokeWidth=1;entryX=0.5;entryY=0;entryDx=0;entryDy=0;exitX=0.507;exitY=1.001;exitDx=0;exitDy=0;exitPerimeter=0;" edge="1" parent="1" source="247" target="253">
                    <mxGeometry x="0.3188" relative="1" as="geometry">
                        <mxPoint x="4086" y="242" as="sourcePoint"/>
                        <mxPoint x="4350" y="266" as="targetPoint"/>
                        <Array as="points">
                            <mxPoint x="4183" y="272"/>
                            <mxPoint x="4183" y="272"/>
                        </Array>
                        <mxPoint as="offset"/>
                    </mxGeometry>
                </mxCell>
                <mxCell id="275" value="" style="endArrow=open;endFill=1;endSize=12;html=1;strokeWidth=1;exitX=0;exitY=0.5;exitDx=0;exitDy=0;" edge="1" parent="1" source="254" target="217">
                    <mxGeometry width="160" relative="1" as="geometry">
                        <mxPoint x="3850" y="363" as="sourcePoint"/>
                        <mxPoint x="4010" y="363" as="targetPoint"/>
                        <Array as="points">
                            <mxPoint x="3613" y="327"/>
                        </Array>
                    </mxGeometry>
                </mxCell>
                <mxCell id="276" value="Publication" style="swimlane;fontStyle=1;childLayout=stackLayout;horizontal=1;startSize=26;fillColor=none;horizontalStack=0;resizeParent=1;resizeParentMax=0;resizeLast=0;collapsible=1;marginBottom=0;" vertex="1" parent="1">
                    <mxGeometry x="4043" y="717" width="240" height="320" as="geometry"/>
                </mxCell>
                <mxCell id="277" value="+ Id: int" style="text;strokeColor=none;fillColor=none;align=left;verticalAlign=top;spacingLeft=4;spacingRight=4;overflow=hidden;rotatable=0;points=[[0,0.5],[1,0.5]];portConstraint=eastwest;" vertex="1" parent="276">
                    <mxGeometry y="26" width="240" height="26" as="geometry"/>
                </mxCell>
                <mxCell id="278" value="+ ActiveFrom: Date" style="text;strokeColor=none;fillColor=none;align=left;verticalAlign=top;spacingLeft=4;spacingRight=4;overflow=hidden;rotatable=0;points=[[0,0.5],[1,0.5]];portConstraint=eastwest;" vertex="1" parent="276">
                    <mxGeometry y="52" width="240" height="26" as="geometry"/>
                </mxCell>
                <mxCell id="279" value="+ ActiveUntil: Date" style="text;strokeColor=none;fillColor=none;align=left;verticalAlign=top;spacingLeft=4;spacingRight=4;overflow=hidden;rotatable=0;points=[[0,0.5],[1,0.5]];portConstraint=eastwest;" vertex="1" parent="276">
                    <mxGeometry y="78" width="240" height="26" as="geometry"/>
                </mxCell>
                <mxCell id="280" value="+ Price: int" style="text;strokeColor=none;fillColor=none;align=left;verticalAlign=top;spacingLeft=4;spacingRight=4;overflow=hidden;rotatable=0;points=[[0,0.5],[1,0.5]];portConstraint=eastwest;" vertex="1" parent="276">
                    <mxGeometry y="104" width="240" height="26" as="geometry"/>
                </mxCell>
                <mxCell id="281" value="+ Currency: Currency" style="text;strokeColor=none;fillColor=none;align=left;verticalAlign=top;spacingLeft=4;spacingRight=4;overflow=hidden;rotatable=0;points=[[0,0.5],[1,0.5]];portConstraint=eastwest;" vertex="1" parent="276">
                    <mxGeometry y="130" width="240" height="26" as="geometry"/>
                </mxCell>
                <mxCell id="282" value="+ KeyWords: string[]" style="text;strokeColor=none;fillColor=none;align=left;verticalAlign=top;spacingLeft=4;spacingRight=4;overflow=hidden;rotatable=0;points=[[0,0.5],[1,0.5]];portConstraint=eastwest;" vertex="1" parent="276">
                    <mxGeometry y="156" width="240" height="26" as="geometry"/>
                </mxCell>
                <mxCell id="283" value="+ Deleted: bool" style="text;strokeColor=none;fillColor=none;align=left;verticalAlign=top;spacingLeft=4;spacingRight=4;overflow=hidden;rotatable=0;points=[[0,0.5],[1,0.5]];portConstraint=eastwest;" vertex="1" parent="276">
                    <mxGeometry y="182" width="240" height="26" as="geometry"/>
                </mxCell>
                <mxCell id="284" value="" style="line;strokeWidth=1;fillColor=none;align=left;verticalAlign=middle;spacingTop=-1;spacingLeft=3;spacingRight=3;rotatable=0;labelPosition=right;points=[];portConstraint=eastwest;" vertex="1" parent="276">
                    <mxGeometry y="208" width="240" height="8" as="geometry"/>
                </mxCell>
                <mxCell id="285" value="+ AddItem(CompanyMaterial): void" style="text;strokeColor=none;fillColor=none;align=left;verticalAlign=top;spacingLeft=4;spacingRight=4;overflow=hidden;rotatable=0;points=[[0,0.5],[1,0.5]];portConstraint=eastwest;" vertex="1" parent="276">
                    <mxGeometry y="216" width="240" height="26" as="geometry"/>
                </mxCell>
                <mxCell id="286" value="+ RemoveItem(CompanyMaterial): void" style="text;strokeColor=none;fillColor=none;align=left;verticalAlign=top;spacingLeft=4;spacingRight=4;overflow=hidden;rotatable=0;points=[[0,0.5],[1,0.5]];portConstraint=eastwest;" vertex="1" parent="276">
                    <mxGeometry y="242" width="240" height="26" as="geometry"/>
                </mxCell>
                <mxCell id="287" value="+ AddKeyWord(string): void" style="text;strokeColor=none;fillColor=none;align=left;verticalAlign=top;spacingLeft=4;spacingRight=4;overflow=hidden;rotatable=0;points=[[0,0.5],[1,0.5]];portConstraint=eastwest;" vertex="1" parent="276">
                    <mxGeometry y="268" width="240" height="26" as="geometry"/>
                </mxCell>
                <mxCell id="288" value="+ RemoveKeyWord(string): void" style="text;strokeColor=none;fillColor=none;align=left;verticalAlign=top;spacingLeft=4;spacingRight=4;overflow=hidden;rotatable=0;points=[[0,0.5],[1,0.5]];portConstraint=eastwest;" vertex="1" parent="276">
                    <mxGeometry y="294" width="240" height="26" as="geometry"/>
                </mxCell>
                <mxCell id="289" value="PublicationItem" style="swimlane;fontStyle=1;childLayout=stackLayout;horizontal=1;startSize=26;fillColor=none;horizontalStack=0;resizeParent=1;resizeParentMax=0;resizeLast=0;collapsible=1;marginBottom=0;" vertex="1" parent="1">
                    <mxGeometry x="4043" y="622" width="240" height="60" as="geometry"/>
                </mxCell>
                <mxCell id="290" value="+ Quantity: int" style="text;strokeColor=none;fillColor=none;align=left;verticalAlign=top;spacingLeft=4;spacingRight=4;overflow=hidden;rotatable=0;points=[[0,0.5],[1,0.5]];portConstraint=eastwest;" vertex="1" parent="289">
                    <mxGeometry y="26" width="240" height="26" as="geometry"/>
                </mxCell>
                <mxCell id="291" value="" style="line;strokeWidth=1;fillColor=none;align=left;verticalAlign=middle;spacingTop=-1;spacingLeft=3;spacingRight=3;rotatable=0;labelPosition=right;points=[];portConstraint=eastwest;" vertex="1" parent="289">
                    <mxGeometry y="52" width="240" height="8" as="geometry"/>
                </mxCell>
                <mxCell id="292" value="1" style="endArrow=open;html=1;endSize=12;startArrow=diamondThin;startSize=14;startFill=0;edgeStyle=orthogonalEdgeStyle;align=left;verticalAlign=bottom;exitX=0.25;exitY=0;exitDx=0;exitDy=0;" edge="1" parent="1" source="276">
                    <mxGeometry x="-1" y="-5" relative="1" as="geometry">
                        <mxPoint x="4497" y="854" as="sourcePoint"/>
                        <mxPoint x="4103" y="682" as="targetPoint"/>
                        <mxPoint as="offset"/>
                    </mxGeometry>
                </mxCell>
                <mxCell id="293" value="" style="ellipse;whiteSpace=wrap;html=1;aspect=fixed;fillColor=#B266FF;" vertex="1" parent="1">
                    <mxGeometry x="4274" y="711" width="14" height="14" as="geometry"/>
                </mxCell>
                <mxCell id="294" value="" style="ellipse;whiteSpace=wrap;html=1;aspect=fixed;fillColor=#B266FF;" vertex="1" parent="1">
                    <mxGeometry x="4273" y="616" width="14" height="14" as="geometry"/>
                </mxCell>
                <mxCell id="295" value="" style="endArrow=open;endFill=1;endSize=12;html=1;strokeWidth=1;exitX=0.25;exitY=0;exitDx=0;exitDy=0;" edge="1" parent="1" source="289" target="264">
                    <mxGeometry width="160" relative="1" as="geometry">
                        <mxPoint x="4350" y="617" as="sourcePoint"/>
                        <mxPoint x="4510" y="617" as="targetPoint"/>
                        <Array as="points">
                            <mxPoint x="4103" y="611"/>
                            <mxPoint x="4181" y="611"/>
                        </Array>
                    </mxGeometry>
                </mxCell>
                <mxCell id="296" value="Sale" style="swimlane;fontStyle=1;childLayout=stackLayout;horizontal=1;startSize=26;fillColor=none;horizontalStack=0;resizeParent=1;resizeParentMax=0;resizeLast=0;collapsible=1;marginBottom=0;" vertex="1" parent="1">
                    <mxGeometry x="3731" y="821" width="240" height="216" as="geometry"/>
                </mxCell>
                <mxCell id="297" value="+ Id: int" style="text;strokeColor=none;fillColor=none;align=left;verticalAlign=top;spacingLeft=4;spacingRight=4;overflow=hidden;rotatable=0;points=[[0,0.5],[1,0.5]];portConstraint=eastwest;" vertex="1" parent="296">
                    <mxGeometry y="26" width="240" height="26" as="geometry"/>
                </mxCell>
                <mxCell id="298" value="+ DateTime: DateTime" style="text;strokeColor=none;fillColor=none;align=left;verticalAlign=top;spacingLeft=4;spacingRight=4;overflow=hidden;rotatable=0;points=[[0,0.5],[1,0.5]];portConstraint=eastwest;" vertex="1" parent="296">
                    <mxGeometry y="52" width="240" height="26" as="geometry"/>
                </mxCell>
                <mxCell id="299" value="+ Price: int" style="text;strokeColor=none;fillColor=none;align=left;verticalAlign=top;spacingLeft=4;spacingRight=4;overflow=hidden;rotatable=0;points=[[0,0.5],[1,0.5]];portConstraint=eastwest;" vertex="1" parent="296">
                    <mxGeometry y="78" width="240" height="26" as="geometry"/>
                </mxCell>
                <mxCell id="300" value="+ Currency: Currency" style="text;strokeColor=none;fillColor=none;align=left;verticalAlign=top;spacingLeft=4;spacingRight=4;overflow=hidden;rotatable=0;points=[[0,0.5],[1,0.5]];portConstraint=eastwest;" vertex="1" parent="296">
                    <mxGeometry y="104" width="240" height="26" as="geometry"/>
                </mxCell>
                <mxCell id="301" value="+ Suspended: bool" style="text;strokeColor=none;fillColor=none;align=left;verticalAlign=top;spacingLeft=4;spacingRight=4;overflow=hidden;rotatable=0;points=[[0,0.5],[1,0.5]];portConstraint=eastwest;" vertex="1" parent="296">
                    <mxGeometry y="130" width="240" height="26" as="geometry"/>
                </mxCell>
                <mxCell id="302" value="" style="line;strokeWidth=1;fillColor=none;align=left;verticalAlign=middle;spacingTop=-1;spacingLeft=3;spacingRight=3;rotatable=0;labelPosition=right;points=[];portConstraint=eastwest;" vertex="1" parent="296">
                    <mxGeometry y="156" width="240" height="8" as="geometry"/>
                </mxCell>
                <mxCell id="303" value="+ AddItem(CompanyMaterial): void" style="text;strokeColor=none;fillColor=none;align=left;verticalAlign=top;spacingLeft=4;spacingRight=4;overflow=hidden;rotatable=0;points=[[0,0.5],[1,0.5]];portConstraint=eastwest;" vertex="1" parent="296">
                    <mxGeometry y="164" width="240" height="26" as="geometry"/>
                </mxCell>
                <mxCell id="304" value="+ RemoveItem(CompanyMaterial): void" style="text;strokeColor=none;fillColor=none;align=left;verticalAlign=top;spacingLeft=4;spacingRight=4;overflow=hidden;rotatable=0;points=[[0,0.5],[1,0.5]];portConstraint=eastwest;" vertex="1" parent="296">
                    <mxGeometry y="190" width="240" height="26" as="geometry"/>
                </mxCell>
                <mxCell id="305" value="" style="ellipse;whiteSpace=wrap;html=1;aspect=fixed;fillColor=#B266FF;" vertex="1" parent="1">
                    <mxGeometry x="3960" y="815" width="14" height="14" as="geometry"/>
                </mxCell>
                <mxCell id="306" value="" style="endArrow=open;endFill=1;endSize=12;html=1;strokeWidth=1;exitX=1;exitY=0.5;exitDx=0;exitDy=0;entryX=1;entryY=0.5;entryDx=0;entryDy=0;" edge="1" parent="1" source="278" target="241">
                    <mxGeometry width="160" relative="1" as="geometry">
                        <mxPoint x="4304" y="838" as="sourcePoint"/>
                        <mxPoint x="4380" y="87" as="targetPoint"/>
                        <Array as="points">
                            <mxPoint x="4374" y="782"/>
                            <mxPoint x="4374" y="90"/>
                        </Array>
                    </mxGeometry>
                </mxCell>
                <mxCell id="307" value="" style="endArrow=open;endFill=1;endSize=12;html=1;strokeWidth=1;exitX=1;exitY=0.5;exitDx=0;exitDy=0;entryX=0;entryY=0.5;entryDx=0;entryDy=0;" edge="1" parent="1" source="299" target="281">
                    <mxGeometry width="160" relative="1" as="geometry">
                        <mxPoint x="4054" y="1096" as="sourcePoint"/>
                        <mxPoint x="4214" y="1096" as="targetPoint"/>
                        <Array as="points">
                            <mxPoint x="4008" y="912"/>
                            <mxPoint x="4008" y="860"/>
                        </Array>
                    </mxGeometry>
                </mxCell>
                <mxCell id="308" value="" style="endArrow=open;endFill=1;endSize=12;html=1;strokeWidth=1;exitX=0.75;exitY=0;exitDx=0;exitDy=0;" edge="1" parent="1" source="296" target="228">
                    <mxGeometry width="160" relative="1" as="geometry">
                        <mxPoint x="3625" y="579" as="sourcePoint"/>
                        <mxPoint x="3785" y="579" as="targetPoint"/>
                        <Array as="points">
                            <mxPoint x="3911" y="706"/>
                            <mxPoint x="3876" y="706"/>
                        </Array>
                    </mxGeometry>
                </mxCell>
                <mxCell id="311" value="Use" style="endArrow=open;endSize=12;dashed=1;html=1;strokeWidth=1;exitX=1;exitY=0.5;exitDx=0;exitDy=0;" edge="1" parent="1" source="147" target="212">
                    <mxGeometry x="-0.8662" width="160" relative="1" as="geometry">
                        <mxPoint x="3277" y="667" as="sourcePoint"/>
                        <mxPoint x="3437" y="667" as="targetPoint"/>
                        <Array as="points">
                            <mxPoint x="3373" y="287"/>
                        </Array>
                        <mxPoint as="offset"/>
                    </mxGeometry>
                </mxCell>
                <mxCell id="312" value="Use" style="endArrow=open;endSize=12;dashed=1;html=1;strokeWidth=1;exitX=1;exitY=0.5;exitDx=0;exitDy=0;entryX=0.5;entryY=0;entryDx=0;entryDy=0;" edge="1" parent="1" source="148" target="313">
                    <mxGeometry x="-0.9453" width="160" relative="1" as="geometry">
                        <mxPoint x="3279" y="486" as="sourcePoint"/>
                        <mxPoint x="3439" y="486" as="targetPoint"/>
                        <Array as="points">
                            <mxPoint x="3648" y="364"/>
                        </Array>
                        <mxPoint as="offset"/>
                    </mxGeometry>
                </mxCell>
                <mxCell id="313" value="Qualification" style="swimlane;fontStyle=1;childLayout=stackLayout;horizontal=1;startSize=26;fillColor=none;horizontalStack=0;resizeParent=1;resizeParentMax=0;resizeLast=0;collapsible=1;marginBottom=0;" vertex="1" parent="1">
                    <mxGeometry x="3593" y="821" width="110" height="112" as="geometry"/>
                </mxCell>
                <mxCell id="314" value="+ Id: int" style="text;strokeColor=none;fillColor=none;align=left;verticalAlign=top;spacingLeft=4;spacingRight=4;overflow=hidden;rotatable=0;points=[[0,0.5],[1,0.5]];portConstraint=eastwest;" vertex="1" parent="313">
                    <mxGeometry y="26" width="110" height="26" as="geometry"/>
                </mxCell>
                <mxCell id="315" value="+ Name: string" style="text;strokeColor=none;fillColor=none;align=left;verticalAlign=top;spacingLeft=4;spacingRight=4;overflow=hidden;rotatable=0;points=[[0,0.5],[1,0.5]];portConstraint=eastwest;" vertex="1" parent="313">
                    <mxGeometry y="52" width="110" height="26" as="geometry"/>
                </mxCell>
                <mxCell id="316" value="+ Deleted: bool" style="text;strokeColor=none;fillColor=none;align=left;verticalAlign=top;spacingLeft=4;spacingRight=4;overflow=hidden;rotatable=0;points=[[0,0.5],[1,0.5]];portConstraint=eastwest;" vertex="1" parent="313">
                    <mxGeometry y="78" width="110" height="26" as="geometry"/>
                </mxCell>
                <mxCell id="317" value="" style="line;strokeWidth=1;fillColor=none;align=left;verticalAlign=middle;spacingTop=-1;spacingLeft=3;spacingRight=3;rotatable=0;labelPosition=right;points=[];portConstraint=eastwest;" vertex="1" parent="313">
                    <mxGeometry y="104" width="110" height="8" as="geometry"/>
                </mxCell>
                <mxCell id="318" value="" style="ellipse;whiteSpace=wrap;html=1;aspect=fixed;fillColor=#B266FF;" vertex="1" parent="1">
                    <mxGeometry x="3693" y="816" width="14" height="14" as="geometry"/>
                </mxCell>
                <mxCell id="321" value="Use" style="endArrow=open;endSize=12;dashed=1;html=1;strokeWidth=1;exitX=1;exitY=0.5;exitDx=0;exitDy=0;entryX=0;entryY=0.5;entryDx=0;entryDy=0;" edge="1" parent="1" source="151" target="245">
                    <mxGeometry x="-0.9558" width="160" relative="1" as="geometry">
                        <mxPoint x="3311" y="577" as="sourcePoint"/>
                        <mxPoint x="3471" y="577" as="targetPoint"/>
                        <Array as="points">
                            <mxPoint x="4010" y="437"/>
                            <mxPoint x="4010" y="176"/>
                        </Array>
                        <mxPoint as="offset"/>
                    </mxGeometry>
                </mxCell>
                <mxCell id="322" value="Use" style="endArrow=open;endSize=12;dashed=1;html=1;strokeWidth=1;exitX=1;exitY=0.5;exitDx=0;exitDy=0;entryX=0.779;entryY=1;entryDx=0;entryDy=0;entryPerimeter=0;" edge="1" parent="1" source="149" target="228">
                    <mxGeometry x="-0.9513" width="160" relative="1" as="geometry">
                        <mxPoint x="3044" y="621" as="sourcePoint"/>
                        <mxPoint x="3204" y="621" as="targetPoint"/>
                        <Array as="points">
                            <mxPoint x="3942" y="513"/>
                        </Array>
                        <mxPoint as="offset"/>
                    </mxGeometry>
                </mxCell>
                <mxCell id="323" value="Use" style="endArrow=open;endSize=12;dashed=1;html=1;strokeWidth=1;exitX=1;exitY=0.5;exitDx=0;exitDy=0;entryX=0;entryY=0.5;entryDx=0;entryDy=0;" edge="1" parent="1" source="150" target="278">
                    <mxGeometry x="-0.9531" width="160" relative="1" as="geometry">
                        <mxPoint x="3152" y="687" as="sourcePoint"/>
                        <mxPoint x="3312" y="687" as="targetPoint"/>
                        <Array as="points">
                            <mxPoint x="3452" y="586"/>
                            <mxPoint x="3452" y="782"/>
                        </Array>
                        <mxPoint as="offset"/>
                    </mxGeometry>
                </mxCell>
                <mxCell id="324" value="Use" style="endArrow=open;endSize=12;dashed=1;html=1;strokeWidth=1;exitX=1;exitY=0.5;exitDx=0;exitDy=0;entryX=0.181;entryY=1.044;entryDx=0;entryDy=0;entryPerimeter=0;" edge="1" parent="1" source="152" target="217">
                    <mxGeometry x="-0.9457" width="160" relative="1" as="geometry">
                        <mxPoint x="3203" y="707" as="sourcePoint"/>
                        <mxPoint x="3363" y="707" as="targetPoint"/>
                        <Array as="points">
                            <mxPoint x="3556" y="653"/>
                        </Array>
                        <mxPoint as="offset"/>
                    </mxGeometry>
                </mxCell>
                <mxCell id="326" value="Use" style="endArrow=open;endSize=12;dashed=1;html=1;strokeWidth=1;exitX=1;exitY=0.5;exitDx=0;exitDy=0;entryX=0.5;entryY=0;entryDx=0;entryDy=0;" edge="1" parent="1" source="153" target="296">
                    <mxGeometry x="-0.939" width="160" relative="1" as="geometry">
                        <mxPoint x="3135" y="775" as="sourcePoint"/>
                        <mxPoint x="3295" y="775" as="targetPoint"/>
                        <Array as="points">
                            <mxPoint x="3851" y="723"/>
                        </Array>
                        <mxPoint x="1" as="offset"/>
                    </mxGeometry>
                </mxCell>
                <mxCell id="327" value="Invitation" style="swimlane;fontStyle=1;childLayout=stackLayout;horizontal=1;startSize=26;fillColor=none;horizontalStack=0;resizeParent=1;resizeParentMax=0;resizeLast=0;collapsible=1;marginBottom=0;" vertex="1" parent="1">
                    <mxGeometry x="3390" y="821" width="147" height="242" as="geometry"/>
                </mxCell>
                <mxCell id="328" value="+ Id: int" style="text;strokeColor=none;fillColor=none;align=left;verticalAlign=top;spacingLeft=4;spacingRight=4;overflow=hidden;rotatable=0;points=[[0,0.5],[1,0.5]];portConstraint=eastwest;" vertex="1" parent="327">
                    <mxGeometry y="26" width="147" height="26" as="geometry"/>
                </mxCell>
                <mxCell id="329" value="+ Code: string" style="text;strokeColor=none;fillColor=none;align=left;verticalAlign=top;spacingLeft=4;spacingRight=4;overflow=hidden;rotatable=0;points=[[0,0.5],[1,0.5]];portConstraint=eastwest;" vertex="1" parent="327">
                    <mxGeometry y="52" width="147" height="26" as="geometry"/>
                </mxCell>
                <mxCell id="332" value="+ Type: RegistrationType" style="text;strokeColor=none;fillColor=none;align=left;verticalAlign=top;spacingLeft=4;spacingRight=4;overflow=hidden;rotatable=0;points=[[0,0.5],[1,0.5]];portConstraint=eastwest;" vertex="1" parent="327">
                    <mxGeometry y="78" width="147" height="26" as="geometry"/>
                </mxCell>
                <mxCell id="333" value="+ ValidAfter: DateTime" style="text;strokeColor=none;fillColor=none;align=left;verticalAlign=top;spacingLeft=4;spacingRight=4;overflow=hidden;rotatable=0;points=[[0,0.5],[1,0.5]];portConstraint=eastwest;" vertex="1" parent="327">
                    <mxGeometry y="104" width="147" height="26" as="geometry"/>
                </mxCell>
                <mxCell id="334" value="+ ValidBefore: DateTime" style="text;strokeColor=none;fillColor=none;align=left;verticalAlign=top;spacingLeft=4;spacingRight=4;overflow=hidden;rotatable=0;points=[[0,0.5],[1,0.5]];portConstraint=eastwest;" vertex="1" parent="327">
                    <mxGeometry y="130" width="147" height="26" as="geometry"/>
                </mxCell>
                <mxCell id="336" value="+ CompanyId: int" style="text;strokeColor=none;fillColor=none;align=left;verticalAlign=top;spacingLeft=4;spacingRight=4;overflow=hidden;rotatable=0;points=[[0,0.5],[1,0.5]];portConstraint=eastwest;" vertex="1" parent="327">
                    <mxGeometry y="156" width="147" height="26" as="geometry"/>
                </mxCell>
                <mxCell id="335" value="+ Used: bool" style="text;strokeColor=none;fillColor=none;align=left;verticalAlign=top;spacingLeft=4;spacingRight=4;overflow=hidden;rotatable=0;points=[[0,0.5],[1,0.5]];portConstraint=eastwest;" vertex="1" parent="327">
                    <mxGeometry y="182" width="147" height="26" as="geometry"/>
                </mxCell>
                <mxCell id="330" value="+ Deleted: bool" style="text;strokeColor=none;fillColor=none;align=left;verticalAlign=top;spacingLeft=4;spacingRight=4;overflow=hidden;rotatable=0;points=[[0,0.5],[1,0.5]];portConstraint=eastwest;" vertex="1" parent="327">
                    <mxGeometry y="208" width="147" height="26" as="geometry"/>
                </mxCell>
                <mxCell id="331" value="" style="line;strokeWidth=1;fillColor=none;align=left;verticalAlign=middle;spacingTop=-1;spacingLeft=3;spacingRight=3;rotatable=0;labelPosition=right;points=[];portConstraint=eastwest;" vertex="1" parent="327">
                    <mxGeometry y="234" width="147" height="8" as="geometry"/>
                </mxCell>
                <mxCell id="337" value="Use" style="endArrow=open;endSize=12;dashed=1;html=1;strokeWidth=1;exitX=1;exitY=0.5;exitDx=0;exitDy=0;entryX=0.25;entryY=0;entryDx=0;entryDy=0;" edge="1" parent="1" source="159" target="327">
                    <mxGeometry x="-0.8849" width="160" relative="1" as="geometry">
                        <mxPoint x="3055" y="890" as="sourcePoint"/>
                        <mxPoint x="3215" y="890" as="targetPoint"/>
                        <Array as="points">
                            <mxPoint x="3427" y="793"/>
                        </Array>
                        <mxPoint as="offset"/>
                    </mxGeometry>
                </mxCell>
                <mxCell id="338" value="&lt;p style=&quot;margin: 0px ; margin-top: 4px ; text-align: center&quot;&gt;&lt;i&gt;&amp;lt;&amp;lt;Enumeration&amp;gt;&amp;gt;&lt;/i&gt;&lt;br&gt;&lt;b&gt;RegistrationType&lt;/b&gt;&lt;/p&gt;&lt;hr size=&quot;1&quot;&gt;&lt;p style=&quot;margin: 0px ; margin-left: 4px&quot;&gt;CompanyNew&lt;/p&gt;&lt;p style=&quot;margin: 0px ; margin-left: 4px&quot;&gt;&lt;span&gt;CompanyJoin&lt;/span&gt;&lt;/p&gt;&lt;p style=&quot;margin: 0px ; margin-left: 4px&quot;&gt;&lt;span&gt;EntrepreneurNew&lt;/span&gt;&lt;br&gt;&lt;/p&gt;" style="verticalAlign=top;align=left;overflow=fill;fontSize=12;fontFamily=Helvetica;html=1;rounded=0;shadow=0;comic=0;labelBackgroundColor=none;strokeWidth=1" vertex="1" parent="1">
                    <mxGeometry x="4537" y="627" width="120" height="100" as="geometry"/>
                </mxCell>
                <mxCell id="339" value="1" style="endArrow=open;html=1;endSize=12;startArrow=diamondThin;startSize=14;startFill=0;edgeStyle=orthogonalEdgeStyle;align=left;verticalAlign=bottom;strokeWidth=1;exitX=0.228;exitY=1.006;exitDx=0;exitDy=0;exitPerimeter=0;entryX=0.25;entryY=0;entryDx=0;entryDy=0;" edge="1" parent="1" source="228" target="313">
                    <mxGeometry x="-0.9279" relative="1" as="geometry">
                        <mxPoint x="3732" y="379" as="sourcePoint"/>
                        <mxPoint x="3892" y="379" as="targetPoint"/>
                        <mxPoint as="offset"/>
                    </mxGeometry>
                </mxCell>
                <mxCell id="340" value="1" style="endArrow=open;html=1;endSize=12;startArrow=diamondThin;startSize=14;startFill=0;edgeStyle=orthogonalEdgeStyle;align=left;verticalAlign=bottom;strokeWidth=1;exitX=1;exitY=0.5;exitDx=0;exitDy=0;entryX=0;entryY=0.5;entryDx=0;entryDy=0;" edge="1" parent="1" source="258" target="266">
                    <mxGeometry x="-1" y="3" relative="1" as="geometry">
                        <mxPoint x="4519" y="391" as="sourcePoint"/>
                        <mxPoint x="4679" y="391" as="targetPoint"/>
                    </mxGeometry>
                </mxCell>
                <mxCell id="341" value="1" style="endArrow=open;html=1;endSize=12;startArrow=diamondThin;startSize=14;startFill=0;edgeStyle=orthogonalEdgeStyle;align=left;verticalAlign=bottom;strokeWidth=1;exitX=0;exitY=0.5;exitDx=0;exitDy=0;entryX=0.75;entryY=0;entryDx=0;entryDy=0;" edge="1" parent="1" source="261" target="313">
                    <mxGeometry x="-0.9226" relative="1" as="geometry">
                        <mxPoint x="3979" y="633" as="sourcePoint"/>
                        <mxPoint x="4139" y="633" as="targetPoint"/>
                        <mxPoint as="offset"/>
                    </mxGeometry>
                </mxCell>
                <mxCell id="342" value="DataAdmin&lt;T&gt;" style="swimlane;fontStyle=1;align=center;verticalAlign=top;childLayout=stackLayout;horizontal=1;startSize=26;horizontalStack=0;resizeParent=1;resizeParentMax=0;resizeLast=0;collapsible=1;marginBottom=0;" vertex="1" parent="1">
                    <mxGeometry x="3076" y="821" width="160" height="242" as="geometry"/>
                </mxCell>
                <mxCell id="343" value="- Storage: StorageProvider" style="text;strokeColor=none;fillColor=none;align=left;verticalAlign=top;spacingLeft=4;spacingRight=4;overflow=hidden;rotatable=0;points=[[0,0.5],[1,0.5]];portConstraint=eastwest;" vertex="1" parent="342">
                    <mxGeometry y="26" width="160" height="26" as="geometry"/>
                </mxCell>
                <mxCell id="344" value="+ Items: T[]" style="text;strokeColor=none;fillColor=none;align=left;verticalAlign=top;spacingLeft=4;spacingRight=4;overflow=hidden;rotatable=0;points=[[0,0.5],[1,0.5]];portConstraint=eastwest;" vertex="1" parent="342">
                    <mxGeometry y="52" width="160" height="26" as="geometry"/>
                </mxCell>
                <mxCell id="345" value="" style="line;strokeWidth=1;fillColor=none;align=left;verticalAlign=middle;spacingTop=-1;spacingLeft=3;spacingRight=3;rotatable=0;labelPosition=right;points=[];portConstraint=eastwest;" vertex="1" parent="342">
                    <mxGeometry y="78" width="160" height="8" as="geometry"/>
                </mxCell>
                <mxCell id="346" value="+ Insert(T): void" style="text;strokeColor=none;fillColor=none;align=left;verticalAlign=top;spacingLeft=4;spacingRight=4;overflow=hidden;rotatable=0;points=[[0,0.5],[1,0.5]];portConstraint=eastwest;" vertex="1" parent="342">
                    <mxGeometry y="86" width="160" height="26" as="geometry"/>
                </mxCell>
                <mxCell id="347" value="+ Update(T): void" style="text;strokeColor=none;fillColor=none;align=left;verticalAlign=top;spacingLeft=4;spacingRight=4;overflow=hidden;rotatable=0;points=[[0,0.5],[1,0.5]];portConstraint=eastwest;" vertex="1" parent="342">
                    <mxGeometry y="112" width="160" height="26" as="geometry"/>
                </mxCell>
                <mxCell id="348" value="+ Delete(int): void" style="text;strokeColor=none;fillColor=none;align=left;verticalAlign=top;spacingLeft=4;spacingRight=4;overflow=hidden;rotatable=0;points=[[0,0.5],[1,0.5]];portConstraint=eastwest;" vertex="1" parent="342">
                    <mxGeometry y="138" width="160" height="26" as="geometry"/>
                </mxCell>
                <mxCell id="349" value="+ GetById(int): T" style="text;strokeColor=none;fillColor=none;align=left;verticalAlign=top;spacingLeft=4;spacingRight=4;overflow=hidden;rotatable=0;points=[[0,0.5],[1,0.5]];portConstraint=eastwest;" vertex="1" parent="342">
                    <mxGeometry y="164" width="160" height="26" as="geometry"/>
                </mxCell>
                <mxCell id="350" value="+ GetByName(string): T" style="text;strokeColor=none;fillColor=none;align=left;verticalAlign=top;spacingLeft=4;spacingRight=4;overflow=hidden;rotatable=0;points=[[0,0.5],[1,0.5]];portConstraint=eastwest;" vertex="1" parent="342">
                    <mxGeometry y="190" width="160" height="26" as="geometry"/>
                </mxCell>
                <mxCell id="351" value="+ New():T" style="text;strokeColor=none;fillColor=none;align=left;verticalAlign=top;spacingLeft=4;spacingRight=4;overflow=hidden;rotatable=0;points=[[0,0.5],[1,0.5]];portConstraint=eastwest;" vertex="1" parent="342">
                    <mxGeometry y="216" width="160" height="26" as="geometry"/>
                </mxCell>
                <mxCell id="352" value="StorageProvider" style="swimlane;fontStyle=1;childLayout=stackLayout;horizontal=1;startSize=26;fillColor=none;horizontalStack=0;resizeParent=1;resizeParentMax=0;resizeLast=0;collapsible=1;marginBottom=0;" vertex="1" parent="1">
                    <mxGeometry x="2802" y="1011" width="160" height="52" as="geometry"/>
                </mxCell>
                <mxCell id="353" value="" style="endArrow=open;endFill=1;endSize=12;html=1;strokeWidth=1;exitX=0;exitY=0.5;exitDx=0;exitDy=0;entryX=0.5;entryY=0;entryDx=0;entryDy=0;" edge="1" parent="1" source="344" target="352">
                    <mxGeometry width="160" relative="1" as="geometry">
                        <mxPoint x="2909" y="909" as="sourcePoint"/>
                        <mxPoint x="3069" y="909" as="targetPoint"/>
                        <Array as="points">
                            <mxPoint x="2882" y="886"/>
                        </Array>
                    </mxGeometry>
                </mxCell>
                <mxCell id="354" value="" style="endArrow=block;dashed=1;endFill=0;endSize=12;html=1;strokeWidth=1;exitX=1;exitY=0.25;exitDx=0;exitDy=0;entryX=0.5;entryY=0;entryDx=0;entryDy=0;" edge="1" parent="1" source="159" target="342">
                    <mxGeometry width="160" relative="1" as="geometry">
                        <mxPoint x="3026" y="746" as="sourcePoint"/>
                        <mxPoint x="3186" y="746" as="targetPoint"/>
                        <Array as="points">
                            <mxPoint x="3156" y="780"/>
                        </Array>
                    </mxGeometry>
                </mxCell>
                <mxCell id="355" value="" style="endArrow=block;dashed=1;endFill=0;endSize=12;html=1;strokeWidth=1;exitX=1;exitY=0.25;exitDx=0;exitDy=0;entryX=0.5;entryY=0;entryDx=0;entryDy=0;" edge="1" parent="1" source="153" target="342">
                    <mxGeometry width="160" relative="1" as="geometry">
                        <mxPoint x="2991" y="704" as="sourcePoint"/>
                        <mxPoint x="3151" y="782" as="targetPoint"/>
                        <Array as="points">
                            <mxPoint x="3156" y="710"/>
                        </Array>
                    </mxGeometry>
                </mxCell>
                <mxCell id="357" value="" style="endArrow=block;dashed=1;endFill=0;endSize=12;html=1;strokeWidth=1;exitX=1;exitY=0.25;exitDx=0;exitDy=0;entryX=0.5;entryY=0;entryDx=0;entryDy=0;" edge="1" parent="1" source="152" target="342">
                    <mxGeometry width="160" relative="1" as="geometry">
                        <mxPoint x="3055" y="614" as="sourcePoint"/>
                        <mxPoint x="3215" y="614" as="targetPoint"/>
                        <Array as="points">
                            <mxPoint x="3156" y="640"/>
                        </Array>
                    </mxGeometry>
                </mxCell>
                <mxCell id="358" value="" style="endArrow=block;dashed=1;endFill=0;endSize=12;html=1;strokeWidth=1;exitX=1;exitY=0.25;exitDx=0;exitDy=0;entryX=0.5;entryY=0;entryDx=0;entryDy=0;" edge="1" parent="1" source="150" target="342">
                    <mxGeometry width="160" relative="1" as="geometry">
                        <mxPoint x="3013" y="558" as="sourcePoint"/>
                        <mxPoint x="3173" y="558" as="targetPoint"/>
                        <Array as="points">
                            <mxPoint x="3156" y="573"/>
                        </Array>
                    </mxGeometry>
                </mxCell>
                <mxCell id="359" value="" style="endArrow=block;dashed=1;endFill=0;endSize=12;html=1;strokeWidth=1;exitX=1;exitY=0.25;exitDx=0;exitDy=0;entryX=0.5;entryY=0;entryDx=0;entryDy=0;" edge="1" parent="1" source="149" target="342">
                    <mxGeometry width="160" relative="1" as="geometry">
                        <mxPoint x="3227" y="536" as="sourcePoint"/>
                        <mxPoint x="3387" y="536" as="targetPoint"/>
                        <Array as="points">
                            <mxPoint x="3156" y="500"/>
                        </Array>
                    </mxGeometry>
                </mxCell>
                <mxCell id="360" value="" style="endArrow=block;dashed=1;endFill=0;endSize=12;html=1;strokeWidth=1;exitX=1;exitY=0.25;exitDx=0;exitDy=0;entryX=0.5;entryY=0;entryDx=0;entryDy=0;" edge="1" parent="1" source="151" target="342">
                    <mxGeometry width="160" relative="1" as="geometry">
                        <mxPoint x="3063" y="464" as="sourcePoint"/>
                        <mxPoint x="3223" y="464" as="targetPoint"/>
                        <Array as="points">
                            <mxPoint x="3156" y="424"/>
                        </Array>
                    </mxGeometry>
                </mxCell>
                <mxCell id="361" value="" style="endArrow=block;dashed=1;endFill=0;endSize=12;html=1;strokeWidth=1;exitX=1;exitY=0.25;exitDx=0;exitDy=0;entryX=0.5;entryY=0;entryDx=0;entryDy=0;" edge="1" parent="1" source="148" target="342">
                    <mxGeometry width="160" relative="1" as="geometry">
                        <mxPoint x="3267" y="404" as="sourcePoint"/>
                        <mxPoint x="3427" y="404" as="targetPoint"/>
                        <Array as="points">
                            <mxPoint x="3156" y="351"/>
                        </Array>
                    </mxGeometry>
                </mxCell>
                <mxCell id="362" value="" style="endArrow=block;dashed=1;endFill=0;endSize=12;html=1;strokeWidth=1;exitX=1;exitY=0.25;exitDx=0;exitDy=0;entryX=0.5;entryY=0;entryDx=0;entryDy=0;" edge="1" parent="1" source="147" target="342">
                    <mxGeometry width="160" relative="1" as="geometry">
                        <mxPoint x="3066" y="314" as="sourcePoint"/>
                        <mxPoint x="3226" y="314" as="targetPoint"/>
                        <Array as="points">
                            <mxPoint x="3156" y="274"/>
                        </Array>
                    </mxGeometry>
                </mxCell>
                <mxCell id="363" value="&amp;lt;&amp;lt;bind&amp;gt;&amp;gt;&lt;br style=&quot;font-size: 10px&quot;&gt;&amp;lt;Company&amp;gt;" style="text;html=1;strokeColor=none;fillColor=none;align=center;verticalAlign=middle;whiteSpace=wrap;rounded=0;fontSize=10;" vertex="1" parent="1">
                    <mxGeometry x="2984" y="400" width="100" height="20" as="geometry"/>
                </mxCell>
                <mxCell id="364" value="&amp;lt;&amp;lt;bind&amp;gt;&amp;gt;&lt;br style=&quot;font-size: 10px&quot;&gt;&amp;lt;Entrepreneur&amp;gt;" style="text;html=1;strokeColor=none;fillColor=none;align=center;verticalAlign=middle;whiteSpace=wrap;rounded=0;fontSize=10;" vertex="1" parent="1">
                    <mxGeometry x="2985" y="476" width="100" height="20" as="geometry"/>
                </mxCell>
                <mxCell id="365" value="&amp;lt;&amp;lt;bind&amp;gt;&amp;gt;&lt;br style=&quot;font-size: 10px&quot;&gt;&amp;lt;Publication&amp;gt;" style="text;html=1;strokeColor=none;fillColor=none;align=center;verticalAlign=middle;whiteSpace=wrap;rounded=0;fontSize=10;" vertex="1" parent="1">
                    <mxGeometry x="2984" y="550" width="100" height="20" as="geometry"/>
                </mxCell>
                <mxCell id="366" value="&amp;lt;&amp;lt;bind&amp;gt;&amp;gt;&lt;br style=&quot;font-size: 10px&quot;&gt;&amp;lt;MaterialCategory&amp;gt;" style="text;html=1;strokeColor=none;fillColor=none;align=center;verticalAlign=middle;whiteSpace=wrap;rounded=0;fontSize=10;" vertex="1" parent="1">
                    <mxGeometry x="2984" y="615" width="100" height="20" as="geometry"/>
                </mxCell>
                <mxCell id="367" value="&amp;lt;&amp;lt;bind&amp;gt;&amp;gt;&lt;br style=&quot;font-size: 10px&quot;&gt;&amp;lt;Sale&amp;gt;" style="text;html=1;strokeColor=none;fillColor=none;align=center;verticalAlign=middle;whiteSpace=wrap;rounded=0;fontSize=10;" vertex="1" parent="1">
                    <mxGeometry x="2984" y="688" width="100" height="20" as="geometry"/>
                </mxCell>
                <mxCell id="368" value="&amp;lt;&amp;lt;bind&amp;gt;&amp;gt;&lt;br style=&quot;font-size: 10px;&quot;&gt;&amp;lt;User&amp;gt;" style="text;html=1;strokeColor=none;fillColor=none;align=center;verticalAlign=middle;whiteSpace=wrap;rounded=0;fontSize=10;" vertex="1" parent="1">
                    <mxGeometry x="2984" y="250" width="100" height="20" as="geometry"/>
                </mxCell>
                <mxCell id="369" value="&amp;lt;&amp;lt;bind&amp;gt;&amp;gt;&lt;br style=&quot;font-size: 10px&quot;&gt;&amp;lt;Qualification&amp;gt;" style="text;html=1;strokeColor=none;fillColor=none;align=center;verticalAlign=middle;whiteSpace=wrap;rounded=0;fontSize=10;" vertex="1" parent="1">
                    <mxGeometry x="2986" y="326" width="100" height="20" as="geometry"/>
                </mxCell>
                <mxCell id="370" value="&amp;lt;&amp;lt;bind&amp;gt;&amp;gt;&lt;br style=&quot;font-size: 10px&quot;&gt;&amp;lt;Invitation&amp;gt;" style="text;html=1;strokeColor=none;fillColor=none;align=center;verticalAlign=middle;whiteSpace=wrap;rounded=0;fontSize=10;" vertex="1" parent="1">
                    <mxGeometry x="2986" y="755" width="100" height="20" as="geometry"/>
                </mxCell>
                <mxCell id="371" value="" style="ellipse;whiteSpace=wrap;html=1;aspect=fixed;fillColor=#B3FF66;" vertex="1" parent="1">
                    <mxGeometry x="2343" y="540" width="14" height="14" as="geometry"/>
                </mxCell>
                <mxCell id="372" value="" style="ellipse;whiteSpace=wrap;html=1;aspect=fixed;fillColor=#66B2FF;" vertex="1" parent="1">
                    <mxGeometry x="2342" y="466" width="14" height="14" as="geometry"/>
                </mxCell>
                <mxCell id="373" value="" style="ellipse;whiteSpace=wrap;html=1;aspect=fixed;fillColor=#FF6666;" vertex="1" parent="1">
                    <mxGeometry x="2342" y="429" width="14" height="14" as="geometry"/>
                </mxCell>
                <mxCell id="374" value="" style="ellipse;whiteSpace=wrap;html=1;aspect=fixed;fillColor=#B266FF;" vertex="1" parent="1">
                    <mxGeometry x="2342" y="503" width="14" height="14" as="geometry"/>
                </mxCell>
                <mxCell id="375" value="Seba" style="text;html=1;align=center;verticalAlign=middle;resizable=0;points=[];autosize=1;strokeColor=none;" vertex="1" parent="1">
                    <mxGeometry x="2367" y="426" width="40" height="20" as="geometry"/>
                </mxCell>
                <mxCell id="376" value="Nico" style="text;html=1;align=center;verticalAlign=middle;resizable=0;points=[];autosize=1;strokeColor=none;" vertex="1" parent="1">
                    <mxGeometry x="2357" y="466" width="40" height="20" as="geometry"/>
                </mxCell>
                <mxCell id="377" value="Franco" style="text;html=1;align=center;verticalAlign=middle;resizable=0;points=[];autosize=1;strokeColor=none;" vertex="1" parent="1">
                    <mxGeometry x="2357" y="497" width="50" height="20" as="geometry"/>
                </mxCell>
                <mxCell id="378" value="Rodri" style="text;html=1;align=center;verticalAlign=middle;resizable=0;points=[];autosize=1;strokeColor=none;" vertex="1" parent="1">
                    <mxGeometry x="2367" y="534" width="40" height="20" as="geometry"/>
                </mxCell>
            </root>
        </mxGraphModel>
    </diagram>
</mxfile>